<svg width="21" height="22" viewBox="0 0 21 22" fill="none" xmlns="http://www.w3.org/2000/svg">
<path d="M16.1176 7.69253C15.5829 6.46403 14.6602 5.44472 13.4909 4.79079C12.3215 4.13686 10.97 3.88438 9.6434 4.07205C8.31682 4.25972 7.08837 4.87718 6.14628 5.82981C5.20419 6.78244 4.60045 8.01769 4.42756 9.34628C3.59332 9.54606 2.8615 10.0453 2.37108 10.7491C1.88065 11.4529 1.66578 12.3123 1.76726 13.1641C1.86874 14.0159 2.27951 14.8008 2.92157 15.3697C3.56362 15.9385 4.39223 16.2518 5.25006 16.25H7.00006C7.23212 16.25 7.45468 16.1578 7.61877 15.9937C7.78287 15.8297 7.87506 15.6071 7.87506 15.375C7.87506 15.143 7.78287 14.9204 7.61877 14.7563C7.45468 14.5922 7.23212 14.5 7.00006 14.5H5.25006C4.78593 14.5 4.34081 14.3157 4.01262 13.9875C3.68443 13.6593 3.50006 13.2142 3.50006 12.75C3.50006 12.2859 3.68443 11.8408 4.01262 11.5126C4.34081 11.1844 4.78593 11 5.25006 11C5.48212 11 5.70468 10.9078 5.86877 10.7437C6.03287 10.5797 6.12506 10.3571 6.12506 10.125C6.12729 9.09015 6.49631 8.08956 7.16654 7.30104C7.83678 6.51252 8.76484 5.98711 9.78584 5.81817C10.8068 5.64923 11.8547 5.84769 12.7432 6.37829C13.6317 6.90889 14.3033 7.73728 14.6388 8.71628C14.6888 8.86664 14.7787 9.0006 14.8989 9.10385C15.0191 9.2071 15.1651 9.27577 15.3213 9.30253C15.9287 9.4073 16.4799 9.72247 16.8782 10.1928C17.2766 10.6632 17.4967 11.2587 17.5001 11.875C17.5001 12.5712 17.2235 13.2389 16.7312 13.7312C16.2389 14.2235 15.5712 14.5 14.8751 14.5C14.643 14.5 14.4204 14.5922 14.2563 14.7563C14.0922 14.9204 14.0001 15.143 14.0001 15.375C14.0001 15.6071 14.0922 15.8297 14.2563 15.9937C14.4204 16.1578 14.643 16.25 14.8751 16.25C15.9195 16.2404 16.926 15.8574 17.7126 15.1704C18.4993 14.4833 19.0142 13.5375 19.1643 12.5038C19.3144 11.4702 19.0897 10.417 18.5309 9.5346C17.9721 8.65219 17.1161 7.9988 16.1176 7.69253ZM11.3051 16.7925C11.287 16.739 11.2604 16.6888 11.2263 16.6438L11.1213 16.5038C11.0358 16.4272 10.9382 16.3651 10.8326 16.32C10.6732 16.253 10.4976 16.2347 10.3278 16.2674C10.1581 16.3001 10.0019 16.3824 9.87881 16.5038L9.77381 16.6438C9.73973 16.6888 9.71314 16.739 9.69506 16.7925C9.66931 16.8419 9.65159 16.8951 9.64256 16.95C9.63964 17.0083 9.63964 17.0667 9.64256 17.125C9.63728 17.1803 9.63728 17.236 9.64256 17.2913C9.65067 17.3492 9.66841 17.4054 9.69506 17.4575C9.71314 17.511 9.73973 17.5613 9.77381 17.6063L9.87881 17.7463C10.0465 17.9062 10.2684 17.9968 10.5001 18C10.6144 17.9986 10.7274 17.9749 10.8326 17.93C10.9382 17.885 11.0358 17.8229 11.1213 17.7463L11.2263 17.6063C11.2604 17.5613 11.287 17.511 11.3051 17.4575C11.3317 17.4054 11.3494 17.3492 11.3576 17.2913C11.3687 17.2365 11.3745 17.1809 11.3751 17.125C11.378 17.0667 11.378 17.0083 11.3751 16.95C11.3606 16.894 11.3369 16.8408 11.3051 16.7925ZM10.5001 10.125C10.039 10.1247 9.58597 10.2459 9.1866 10.4763C8.78723 10.7067 8.45559 11.0382 8.22506 11.4375C8.1672 11.5374 8.12968 11.6477 8.11464 11.7622C8.09961 11.8766 8.10736 11.9929 8.13745 12.1043C8.16754 12.2157 8.21938 12.3201 8.28998 12.4114C8.36058 12.5027 8.44854 12.5791 8.54881 12.6363C8.74972 12.7504 8.9876 12.7803 9.21054 12.7197C9.43348 12.659 9.62338 12.5127 9.73881 12.3125C9.8159 12.179 9.9269 12.0682 10.0606 11.9914C10.1943 11.9146 10.3459 11.8744 10.5001 11.875C10.7321 11.875 10.9547 11.9672 11.1188 12.1313C11.2829 12.2954 11.3751 12.518 11.3751 12.75C11.3751 12.9821 11.2829 13.2047 11.1188 13.3687C10.9547 13.5328 10.7321 13.625 10.5001 13.625C10.268 13.625 10.0454 13.7172 9.88134 13.8813C9.71724 14.0454 9.62506 14.268 9.62506 14.5C9.62506 14.7321 9.71724 14.9547 9.88134 15.1187C10.0454 15.2828 10.268 15.375 10.5001 15.375C11.1962 15.375 11.8639 15.0985 12.3562 14.6062C12.8485 14.1139 13.1251 13.4462 13.1251 12.75C13.1251 12.0538 12.8485 11.3862 12.3562 10.8939C11.8639 10.4016 11.1962 10.125 10.5001 10.125Z" fill="#333333" fill-opacity="0.8"/>
</svg>
