<svg width="13" height="18" viewBox="0 0 13 18" fill="none" xmlns="http://www.w3.org/2000/svg">
<path d="M6.5 17.75C4.95417 17.75 3.69271 17.5059 2.71563 17.0176C1.73854 16.5294 1.25 15.8985 1.25 15.125C1.25 14.8479 1.31212 14.5927 1.43637 14.3594C1.56062 14.126 1.74642 13.9073 1.99375 13.7031C2.19792 13.5573 2.42046 13.499 2.66138 13.5281C2.90229 13.5573 3.09537 13.674 3.24062 13.8781C3.38587 14.0823 3.44071 14.3048 3.40513 14.5458C3.36954 14.7867 3.24908 14.9798 3.04375 15.125C3.23333 15.3583 3.67083 15.5625 4.35625 15.7375C5.04167 15.9125 5.75625 16 6.5 16C7.24375 16 7.95833 15.9125 8.64375 15.7375C9.32917 15.5625 9.76667 15.3583 9.95625 15.125C9.75208 14.9792 9.63163 14.7858 9.59487 14.5449C9.55812 14.304 9.61296 14.0817 9.75938 13.8781C9.90579 13.6745 10.0992 13.5579 10.3395 13.5281C10.5798 13.4984 10.8021 13.5567 11.0062 13.7031C11.2542 13.9073 11.4403 14.126 11.5645 14.3594C11.6888 14.5927 11.7506 14.8479 11.75 15.125C11.75 15.8979 11.2615 16.5288 10.2844 17.0176C9.30729 17.5065 8.04583 17.7506 6.5 17.75ZM6.52187 12.9375C7.96562 11.8729 9.05208 10.8048 9.78125 9.73325C10.5104 8.66167 10.875 7.586 10.875 6.50625C10.875 5.01875 10.401 3.89584 9.45312 3.1375C8.50521 2.37917 7.52083 2 6.5 2C5.47917 2 4.49479 2.37917 3.54688 3.1375C2.59896 3.89584 2.125 5.01875 2.125 6.50625C2.125 7.48334 2.48229 8.50067 3.19688 9.55825C3.91146 10.6158 5.01979 11.7423 6.52187 12.9375ZM6.5 14.7094C6.325 14.7094 6.15 14.6802 5.975 14.6219C5.8 14.5635 5.63958 14.476 5.49375 14.3594C3.77292 12.9885 2.48958 11.6504 1.64375 10.3449C0.797917 9.03938 0.375 7.75984 0.375 6.50625C0.375 5.47084 0.561083 4.56288 0.93325 3.78238C1.30542 3.00188 1.78288 2.34942 2.36563 1.825C2.94837 1.30059 3.60462 0.906835 4.33437 0.643752C5.06412 0.380669 5.786 0.249419 6.5 0.250002C7.214 0.250585 7.93588 0.381835 8.66563 0.643752C9.39538 0.905669 10.0516 1.29942 10.6344 1.825C11.2171 2.35059 11.6949 3.00334 12.0676 3.78325C12.4404 4.56317 12.6262 5.47084 12.625 6.50625C12.625 7.76042 12.2021 9.04025 11.3562 10.3458C10.5104 11.6513 9.22708 12.9891 7.50625 14.3594C7.36042 14.476 7.2 14.5635 7.025 14.6219C6.85 14.6802 6.675 14.7094 6.5 14.7094ZM6.5 8.125C6.98125 8.125 7.39337 7.95379 7.73637 7.61138C8.07938 7.26896 8.25058 6.85684 8.25 6.375C8.24942 5.89317 8.07821 5.48134 7.73637 5.1395C7.39454 4.79767 6.98242 4.62617 6.5 4.625C6.01758 4.62384 5.60575 4.79534 5.2645 5.1395C4.92325 5.48367 4.75175 5.8955 4.75 6.375C4.74825 6.8545 4.91975 7.26663 5.2645 7.61138C5.60925 7.95613 6.02108 8.12734 6.5 8.125Z" fill="#333333" fill-opacity="0.8"/>
</svg>
