<svg width="54" height="55" viewBox="0 0 54 55" fill="none" xmlns="http://www.w3.org/2000/svg">
<rect x="0.5" y="5.98914" width="15" height="18.5" stroke="#BD4B2C"/>
<path d="M6.54973 14.0191C6.15973 14.3391 5.76973 14.6191 5.37973 14.8591C4.97973 15.1091 4.52973 15.3391 4.03973 15.5591C3.97973 15.5991 3.89973 15.6091 3.80973 15.6091C3.70973 15.6191 3.62973 15.6191 3.55973 15.5991C3.49973 15.5791 3.45973 15.5591 3.43973 15.5291C3.41973 15.5091 3.38973 15.4791 3.36973 15.4591L3.49973 15.1391C3.56973 15.1791 3.62973 15.1991 3.66973 15.1991C3.70973 15.2091 3.76973 15.1891 3.85973 15.1391C4.14973 14.9891 4.44973 14.7791 4.74973 14.5091C5.04973 14.2491 5.38973 13.9091 5.76973 13.4791C5.92973 13.2991 6.05973 13.1391 6.17973 12.9891C6.28973 12.8491 6.37973 12.7291 6.45973 12.6291C6.53973 12.5091 6.59973 12.4091 6.65973 12.3191H5.53973C5.39973 12.3191 5.29973 12.3291 5.21973 12.3291C5.12973 12.3491 5.05973 12.3591 5.00973 12.3691C4.94973 12.3891 4.89973 12.4091 4.85973 12.4191C4.81973 12.4391 4.77973 12.4591 4.73973 12.4691C4.67973 12.4891 4.63973 12.5091 4.60973 12.5091C4.56973 12.5291 4.51973 12.5291 4.46973 12.5291C4.42973 12.5291 4.36973 12.5091 4.27973 12.4491C4.17973 12.3991 4.09973 12.3091 4.01973 12.1891C3.96973 12.1291 3.91973 12.0491 3.87973 11.9491C3.81973 11.8491 3.78973 11.7691 3.77973 11.6991L4.08973 11.6391C4.18973 11.6991 4.30973 11.7391 4.44973 11.7791C4.57973 11.8191 4.70973 11.8391 4.83973 11.8391L6.69973 11.8291H6.71973C6.78973 11.8091 6.87973 11.7691 6.97973 11.7291C7.07973 11.6991 7.17973 11.6691 7.27973 11.6291C7.37973 11.6091 7.46973 11.5791 7.55973 11.5591C7.63973 11.5391 7.70973 11.5291 7.75973 11.5291C7.77973 11.5291 7.82973 11.5491 7.89973 11.5691C7.95973 11.6091 8.01973 11.6391 8.08973 11.6791C8.14973 11.7291 8.19973 11.7791 8.25973 11.8191C8.29973 11.8791 8.32973 11.9191 8.32973 11.9591C8.32973 12.0691 8.29973 12.1791 8.24973 12.2891C8.18973 12.4091 8.10973 12.5391 8.00973 12.6591C7.90973 12.7891 7.78973 12.9191 7.66973 13.0391C7.52973 13.1791 7.38973 13.3091 7.24973 13.4291C7.36973 13.5691 7.47973 13.6791 7.58973 13.7791C7.68973 13.8791 7.74973 13.9391 7.78973 13.9491C7.82973 13.9591 7.86973 13.9591 7.89973 13.9491C7.91973 13.9491 7.93973 13.9491 7.96973 13.9391L8.25973 13.9791C8.27973 14.0291 8.30973 14.1091 8.36973 14.2091C8.41973 14.3291 8.44973 14.4291 8.46973 14.5091C8.46973 14.5491 8.47973 14.6191 8.49973 14.7191C8.50973 14.8291 8.51973 14.9391 8.51973 15.0491C8.51973 15.1691 8.50973 15.2791 8.48973 15.3691C8.45973 15.4691 8.41973 15.5191 8.35973 15.5291C8.27973 15.5491 8.21973 15.5291 8.15973 15.4791C8.09973 15.4391 8.04973 15.3891 8.01973 15.3491C7.95973 15.2791 7.87973 15.1791 7.78973 15.0591C7.68973 14.9391 7.57973 14.8091 7.46973 14.6691C7.34973 14.5391 7.23973 14.3991 7.11973 14.2491C6.99973 14.1091 6.87973 13.9691 6.77973 13.8291L6.54973 14.0191ZM11.0597 15.4091C11.0597 15.6091 11.0397 15.7391 10.9997 15.8191C10.9497 15.8991 10.8597 15.9691 10.7297 16.0291C10.6297 16.0691 10.5097 16.0891 10.3697 16.0891C10.2497 16.0891 10.1597 16.0791 10.0797 16.0591C9.99973 16.0391 9.91973 16.0191 9.84973 15.9891C9.76973 15.9591 9.68973 15.9091 9.61973 15.8491C9.53973 15.7891 9.48973 15.7391 9.45973 15.6891L9.54973 15.5391C9.62973 15.5591 9.69973 15.5691 9.75973 15.5591C9.82973 15.5491 9.87973 15.5191 9.89973 15.4591C9.90973 15.4091 9.91973 15.3391 9.91973 15.2591V13.5891C9.71973 13.6091 9.55973 13.6391 9.43973 13.6591C9.30973 13.6991 9.20973 13.7291 9.12973 13.7591C9.09973 13.7791 9.06973 13.7891 9.04973 13.7991C9.00973 13.8191 8.97973 13.8291 8.93973 13.8391C8.88973 13.8591 8.82973 13.8491 8.75973 13.8091C8.67973 13.7891 8.58973 13.7291 8.47973 13.6491C8.37973 13.5891 8.29973 13.5091 8.23973 13.4091C8.16973 13.3191 8.09973 13.1891 8.01973 13.0091L8.26973 12.9091L8.34973 12.9391C8.43973 12.9791 8.54973 13.0191 8.67973 13.0391C8.79973 13.0691 8.91973 13.0791 9.03973 13.0791H9.91973V10.4491C9.91973 10.3991 9.90973 10.3491 9.88973 10.2991C9.85973 10.2591 9.82973 10.2091 9.79973 10.1691L9.99973 10.0391C10.3597 10.0891 10.6197 10.1491 10.7997 10.2291C10.9697 10.3191 11.0597 10.3891 11.0597 10.4291V15.4091ZM7.57973 18.4091C7.33973 18.5991 7.04973 18.7791 6.72973 18.9491C6.39973 19.1291 6.09973 19.2691 5.81973 19.3891C5.64973 19.4491 5.46973 19.4791 5.27973 19.4691C5.21973 19.4691 5.17973 19.4591 5.13973 19.4391C5.09973 19.4191 5.06973 19.3991 5.04973 19.3791C5.01973 19.3491 4.99973 19.3191 4.98973 19.2991L5.11973 19.0491C5.14973 19.0691 5.18973 19.0691 5.22973 19.0691C5.25973 19.0691 5.29973 19.0691 5.34973 19.0591C5.38973 19.0591 5.44973 19.0491 5.50973 19.0091C5.58973 18.9691 5.68973 18.9091 5.80973 18.8291C5.90973 18.7591 6.02973 18.6691 6.15973 18.5691C6.27973 18.4691 6.40973 18.3691 6.54973 18.2491C6.66973 18.1391 6.79973 18.0191 6.91973 17.8991C7.01973 17.7991 7.13973 17.6891 7.25973 17.5691C7.36973 17.4591 7.46973 17.3491 7.56973 17.2391C7.65973 17.1391 7.73973 17.0391 7.80973 16.9391C7.86973 16.8491 7.89973 16.7691 7.90973 16.7091C7.91973 16.6391 7.91973 16.5691 7.91973 16.4991C7.89973 16.4391 7.86973 16.3691 7.81973 16.2791C7.77973 16.2191 7.73973 16.1791 7.70973 16.1391L7.65973 16.0891L7.91973 15.7391C8.06973 15.7891 8.21973 15.8491 8.36973 15.9091C8.50973 15.9891 8.67973 16.0891 8.86973 16.2091C8.94973 16.2691 9.03973 16.3391 9.11973 16.4091C9.19973 16.4891 9.23973 16.5591 9.24973 16.6091C9.24973 16.7091 9.22973 16.8091 9.17973 16.9091C9.11973 17.0191 9.04973 17.1291 8.95973 17.2391L10.0697 17.9591C10.1297 18.0091 10.1997 18.0391 10.2697 18.0391C10.3297 18.0491 10.3897 18.0491 10.4497 18.0291C10.4997 18.0191 10.5397 17.9991 10.5797 17.9791C10.6097 17.9591 10.6297 17.9491 10.6397 17.9391L10.9097 17.9491C10.9497 17.9991 11.0097 18.0791 11.0897 18.1791C11.1597 18.2891 11.2197 18.4091 11.2797 18.5291C11.3197 18.6291 11.3597 18.7391 11.3997 18.8491C11.4297 18.9691 11.4497 19.0891 11.4697 19.1891C11.4697 19.2891 11.4697 19.3791 11.4497 19.4591C11.4197 19.5291 11.3597 19.5791 11.2797 19.5991C11.1997 19.6091 11.1397 19.5991 11.0797 19.5591C11.0097 19.5091 10.9397 19.4591 10.8597 19.3991C10.5497 19.1691 10.1997 18.9091 9.79973 18.6191C9.39973 18.3391 8.96973 18.0191 8.52973 17.6691C8.34973 17.8291 8.17973 17.9691 7.99973 18.0891C7.81973 18.2291 7.67973 18.3291 7.57973 18.4091ZM5.87973 11.2691C5.83973 11.2591 5.74973 11.2091 5.58973 11.1291C5.42973 11.0591 5.27973 10.9391 5.14973 10.7791C5.07973 10.6991 5.03973 10.6491 5.01973 10.6091C4.99973 10.5891 4.97973 10.5591 4.96973 10.5291C4.96973 10.5291 4.97973 10.5091 4.99973 10.4691C4.99973 10.4391 5.00973 10.3991 5.02973 10.3591C5.03973 10.3191 5.04973 10.2791 5.06973 10.2391C5.07973 10.1991 5.08973 10.1691 5.10973 10.1491C5.40973 10.3691 5.73973 10.4991 6.11973 10.5491C6.47973 10.6091 6.88973 10.6291 7.33973 10.5891L7.68973 10.7191C7.69973 10.7591 7.70973 10.8091 7.70973 10.8691C7.70973 10.9491 7.67973 10.9991 7.63973 11.0291C7.61973 11.0491 7.59973 11.0591 7.56973 11.0791C7.52973 11.1091 7.47973 11.1291 7.43973 11.1291C7.17973 11.1491 6.92973 11.1791 6.67973 11.2091C6.41973 11.2491 6.14973 11.2691 5.87973 11.2691Z" fill="#333333"/>
<g clip-path="url(#clip0_2031_2)">
<path d="M27.8663 14.8191C27.8663 14.9591 27.8163 15.0591 27.7363 15.1391C27.6363 15.2291 27.5363 15.2691 27.4263 15.2691L24.6363 15.2591V15.5291C24.5463 15.5991 24.4263 15.6391 24.2763 15.6591C24.1163 15.6791 23.9663 15.6891 23.8463 15.6891C23.6763 15.6891 23.5263 15.6691 23.3863 15.6291C23.2463 15.5991 23.1163 15.5391 23.0063 15.4491L23.0663 15.2091C23.0963 15.2291 23.1363 15.2291 23.1863 15.2291C23.2263 15.2291 23.2563 15.2291 23.2963 15.2091C23.3863 15.1691 23.4363 15.1191 23.4563 15.0591C23.4563 15.0091 23.4663 14.9391 23.4663 14.8591V11.5991C23.4663 11.5291 23.4463 11.4591 23.4263 11.3891C23.3863 11.3291 23.3563 11.2691 23.3263 11.2091L23.4563 10.9991C23.8563 11.0491 24.1463 11.1191 24.3363 11.1991C24.5163 11.2891 24.6163 11.3591 24.6363 11.3991V12.8691C24.7163 12.8091 24.8163 12.7391 24.9163 12.6691C24.9963 12.6191 25.0962 12.5591 25.2163 12.4991C25.3163 12.4491 25.4263 12.4091 25.5463 12.3691C25.8263 12.2891 26.0663 12.2391 26.2663 12.2191C26.4663 12.2191 26.6163 12.2091 26.7363 12.2091V11.2991C26.7363 11.1391 26.7063 11.0091 26.6463 10.9091L26.7163 10.7091C26.8263 10.7091 26.9563 10.7091 27.0963 10.7191C27.2363 10.7391 27.3463 10.7591 27.4463 10.7791C27.6063 10.8191 27.7463 10.8691 27.8563 10.9191C27.9563 10.9791 28.0063 11.0291 28.0063 11.0891C28.0063 11.1891 27.9863 11.2791 27.9663 11.3391C27.9263 11.4191 27.8963 11.4891 27.8663 11.5491V12.9291C27.9463 12.9491 28.0263 12.9691 28.1163 12.9691C28.1963 12.9791 28.2863 12.9791 28.3663 12.9791H29.3463V10.4491C29.3463 10.3991 29.3363 10.3491 29.3163 10.2991C29.2863 10.2591 29.2563 10.2091 29.2263 10.1691L29.4263 10.0391C29.7863 10.0891 30.0463 10.1491 30.2263 10.2291C30.3963 10.3191 30.4863 10.3891 30.4863 10.4291V16.5091C30.4863 16.7091 30.4663 16.8391 30.4263 16.9191C30.3763 16.9991 30.2863 17.0691 30.1563 17.1291C30.0563 17.1691 29.9363 17.1891 29.7963 17.1891C29.6763 17.1891 29.5863 17.1791 29.5063 17.1591C29.4263 17.1391 29.3463 17.1191 29.2763 17.0891C29.1963 17.0591 29.1163 17.0091 29.0463 16.9491C28.9663 16.8891 28.9163 16.8391 28.8863 16.7891L28.9763 16.6391C29.0563 16.6591 29.1263 16.6691 29.1863 16.6591C29.2563 16.6491 29.3063 16.6191 29.3263 16.5591C29.3363 16.5091 29.3463 16.4391 29.3463 16.3591V13.4691C29.0863 13.4891 28.9063 13.5091 28.7863 13.5491C28.6563 13.5891 28.5463 13.6291 28.4563 13.6591C28.4263 13.6791 28.3963 13.6891 28.3763 13.6991C28.3363 13.7191 28.3063 13.7291 28.2663 13.7391C28.1663 13.7591 28.0362 13.7191 27.8663 13.5991V14.8191ZM30.4963 18.4291C30.5663 18.4791 30.6263 18.5491 30.6863 18.6491C30.7363 18.7591 30.7563 18.8691 30.7463 18.9791C30.7463 18.9991 30.7363 19.0391 30.7363 19.0791C30.7163 19.1291 30.6963 19.1791 30.6663 19.2191C30.6263 19.2591 30.5663 19.2891 30.4963 19.3291C30.4163 19.3591 30.3063 19.3791 30.1663 19.3791H25.8463C25.6163 19.3791 25.4363 19.2991 25.3063 19.1491C25.1663 18.9991 25.0962 18.7991 25.0962 18.5591V17.1891C25.0962 17.1191 25.0863 17.0591 25.0763 17.0191C25.0563 16.9891 25.0263 16.9591 24.9763 16.9391C24.9263 16.9291 24.8763 16.9191 24.8263 16.8991C24.7663 16.8991 24.7463 16.8591 24.7463 16.7891C24.7463 16.7191 24.7863 16.6691 24.8763 16.6291C24.9563 16.6091 25.0463 16.5891 25.1663 16.5791C25.2663 16.5791 25.3763 16.5891 25.4863 16.5891C25.5863 16.5991 25.6663 16.6091 25.7263 16.6091C25.8663 16.6291 25.9963 16.6791 26.1163 16.7591C26.2263 16.8391 26.2863 16.9491 26.2863 17.0691V18.4891C26.2863 18.6291 26.3263 18.7291 26.4263 18.7991C26.5063 18.8791 26.6263 18.9091 26.7763 18.9091H29.1963C29.3763 18.9091 29.5063 18.9091 29.6063 18.8891C29.6863 18.8791 29.7663 18.8391 29.8463 18.7591C29.9063 18.7091 29.9363 18.6591 29.9563 18.5991C29.9563 18.5491 29.9563 18.5091 29.9463 18.4691L30.0363 18.3191C30.1063 18.3191 30.1863 18.3291 30.2663 18.3391C30.3463 18.3591 30.4163 18.3891 30.4963 18.4291ZM26.7363 12.7191C26.6563 12.7191 26.5763 12.7191 26.4963 12.7191C26.4163 12.7191 26.3263 12.7291 26.2363 12.7291C26.1363 12.7491 26.0363 12.7691 25.9363 12.7891C25.8163 12.8191 25.6863 12.8591 25.5463 12.9191C25.3263 13.0091 25.1563 13.0991 25.0163 13.1891C24.8763 13.2891 24.7463 13.3891 24.6363 13.4891V14.7791H26.3563C26.4363 14.7791 26.4963 14.7791 26.5563 14.7591C26.5963 14.7491 26.6363 14.7191 26.6663 14.6791C26.6863 14.6391 26.7063 14.5791 26.7263 14.4991C26.7263 14.4291 26.7363 14.3291 26.7363 14.1891V12.7191Z" fill="#333333"/>
</g>
<rect x="19.5" y="5.98914" width="15" height="18.5" stroke="#BD4B2C"/>
<g clip-path="url(#clip1_2031_2)">
<path d="M48.1082 18.4491C48.1082 18.6491 48.0882 18.7891 48.0482 18.8691C48.0082 18.9491 47.9182 19.0191 47.7882 19.0791C47.7382 19.0991 47.6982 19.1191 47.6682 19.1191C47.6282 19.1391 47.5682 19.1391 47.4982 19.1391C47.3782 19.1391 47.2882 19.1291 47.2082 19.1091C47.1282 19.0891 47.0482 19.0691 46.9782 19.0291C46.8982 18.9991 46.8282 18.9591 46.7882 18.8991C46.7282 18.8491 46.6882 18.7991 46.6582 18.7491L46.7482 18.5991C46.8182 18.6391 46.8782 18.6491 46.9182 18.6391C46.9882 18.6191 47.0282 18.5891 47.0482 18.5291C47.0482 18.4791 47.0582 18.4091 47.0582 18.3191V10.9691C47.0582 10.9291 47.0382 10.8791 47.0182 10.8191C46.9882 10.7791 46.9582 10.7391 46.9282 10.6991L47.1282 10.4691C47.4882 10.5191 47.7382 10.5891 47.8882 10.6691C48.0282 10.7591 48.1082 10.8191 48.1082 10.8591V13.5691C48.3082 13.5491 48.4882 13.5191 48.6282 13.4591C48.7682 13.4091 48.8782 13.3491 48.9682 13.2891V10.5291C48.9682 10.4791 48.9482 10.4291 48.9282 10.3691C48.8982 10.3291 48.8682 10.2891 48.8382 10.2491L49.0482 10.0691C49.4082 10.1191 49.6582 10.1791 49.8082 10.2591C49.9482 10.3491 50.0282 10.4191 50.0282 10.4591V18.8691C50.0282 19.0691 50.0082 19.2091 49.9782 19.2891C49.9382 19.3691 49.8582 19.4391 49.7482 19.4991C49.6482 19.5391 49.5382 19.5591 49.4182 19.5591C49.2982 19.5591 49.2082 19.5491 49.1282 19.5291C49.0382 19.5091 48.9582 19.4791 48.8882 19.4591C48.8082 19.4191 48.7282 19.3791 48.6582 19.3191C48.5782 19.2491 48.5282 19.1991 48.4982 19.1491L48.5882 18.9991C48.6682 19.0191 48.7382 19.0291 48.7982 19.0191C48.8682 19.0091 48.9182 18.9791 48.9382 18.9191C48.9582 18.8791 48.9682 18.8091 48.9682 18.7191V14.0491H48.1082V18.4491ZM46.6082 11.9791C46.6082 12.1391 46.5782 12.3191 46.5182 12.5191C46.4482 12.7391 46.3682 12.9491 46.2782 13.1691C46.1782 13.3891 46.0782 13.6091 45.9682 13.8091C45.8482 14.0291 45.7382 14.2091 45.6382 14.3591C45.7182 14.5191 45.7982 14.6791 45.8882 14.8191C45.9682 14.9691 46.0182 15.0491 46.0582 15.0691C46.0982 15.0991 46.1282 15.0991 46.1582 15.0691C46.1782 15.0491 46.2082 15.0391 46.2482 15.0291L46.5282 15.0791C46.5582 15.1391 46.5882 15.2291 46.6282 15.3491C46.6482 15.4791 46.6682 15.5891 46.6782 15.6691C46.6782 15.7091 46.6782 15.7891 46.6882 15.8891C46.6882 15.9991 46.6882 16.1091 46.6882 16.2091C46.6682 16.3291 46.6482 16.4291 46.6182 16.5091C46.5782 16.5991 46.5282 16.6391 46.4482 16.6391C46.3882 16.6391 46.3382 16.6091 46.2782 16.5391C46.2182 16.4791 46.1582 16.4091 46.0982 16.3191C46.0382 16.2391 45.9782 16.1491 45.9382 16.0491C45.8782 15.9691 45.8382 15.8891 45.8082 15.8291C45.7382 15.7191 45.6582 15.5691 45.5582 15.3791C45.4582 15.1991 45.3582 15.0291 45.2682 14.8591C45.0882 15.0991 44.8882 15.3191 44.6882 15.5391C44.4782 15.7691 44.2782 15.9691 44.0882 16.1491C43.8882 16.3291 43.6982 16.4791 43.5282 16.5791C43.3482 16.6991 43.1982 16.7491 43.0782 16.7491C42.9782 16.7491 42.8982 16.7391 42.8282 16.7191C42.7482 16.7091 42.6982 16.6991 42.6682 16.6791L42.7782 16.1991C42.8482 16.2391 42.9182 16.2491 42.9982 16.2191C43.1182 16.1891 43.2582 16.1091 43.3982 15.9691C43.5282 15.8391 43.6682 15.6791 43.8082 15.4891C43.7482 15.4291 43.6882 15.3391 43.6082 15.2091C43.5282 15.0891 43.4182 14.9291 43.2782 14.7291L43.1482 14.5591C43.0082 14.7191 42.8582 14.8791 42.7182 15.0191C42.5682 15.1791 42.4282 15.3091 42.2882 15.4191C42.1382 15.5391 41.9982 15.6291 41.8782 15.6891C41.7482 15.7691 41.6382 15.7991 41.5582 15.7991C41.4682 15.7991 41.4082 15.7991 41.3782 15.7791C41.3382 15.7691 41.2982 15.7491 41.2682 15.7291L41.3582 15.2891C41.3782 15.3091 41.3982 15.3091 41.4182 15.3091C41.4282 15.3091 41.4582 15.3091 41.5182 15.3091C41.5782 15.3091 41.6682 15.2691 41.7782 15.1791C41.8782 15.0991 41.9882 14.9891 42.1082 14.8391C42.2182 14.6991 42.3382 14.5391 42.4582 14.3391C42.5782 14.1491 42.6882 13.9491 42.7882 13.7291C42.8682 13.5491 42.9382 13.3891 42.9982 13.2591C43.0482 13.1391 43.0882 13.0191 43.1282 12.9091C43.1582 12.8091 43.1882 12.7091 43.2282 12.6091C43.2482 12.5091 43.2882 12.3991 43.3282 12.2591H43.1482C43.0482 12.2591 42.9782 12.2691 42.9182 12.2791C42.8482 12.2991 42.7782 12.3191 42.7082 12.3491C42.6482 12.3791 42.6082 12.3991 42.5782 12.3991C42.5382 12.4191 42.4982 12.4191 42.4482 12.4191C42.4082 12.4191 42.3482 12.3991 42.2682 12.3591C42.1782 12.3191 42.0882 12.2491 41.9982 12.1291C41.9482 12.0691 41.8982 11.9891 41.8582 11.8791C41.7982 11.7791 41.7682 11.6991 41.7582 11.6291L42.0182 11.5591C42.0382 11.5791 42.0782 11.5991 42.1382 11.6191C42.1782 11.6491 42.2382 11.6691 42.2982 11.6891C42.4382 11.7491 42.5582 11.7691 42.6382 11.7691C42.7082 11.7791 42.7482 11.7791 42.7682 11.7791H43.1382L43.1582 11.7691C43.2282 11.7491 43.3082 11.7191 43.4082 11.6791C43.4882 11.6591 43.5782 11.6291 43.6782 11.5991C43.7582 11.5791 43.8482 11.5591 43.9282 11.5391C43.9982 11.5291 44.0582 11.5191 44.1082 11.5191C44.1382 11.5191 44.1882 11.5491 44.2682 11.5991C44.3382 11.6591 44.3982 11.7191 44.4582 11.7791H44.5982H45.1382C45.1982 11.7591 45.2682 11.7291 45.3582 11.6891C45.4382 11.6691 45.5182 11.6391 45.6082 11.6091C45.6882 11.5891 45.7782 11.5591 45.8582 11.5391C45.9382 11.5291 45.9982 11.5191 46.0482 11.5191C46.0682 11.5191 46.1182 11.5391 46.1782 11.5691C46.2382 11.6091 46.2982 11.6491 46.3682 11.6891C46.4282 11.7391 46.4782 11.7891 46.5382 11.8391C46.5782 11.8991 46.6082 11.9391 46.6082 11.9791ZM43.4782 14.1591C43.5182 14.2191 43.5582 14.2591 43.5882 14.2591C43.6282 14.2791 43.6582 14.2791 43.6882 14.2591C43.7082 14.2491 43.7382 14.2391 43.7782 14.2291L44.0282 14.2791C44.0582 14.3391 44.0882 14.4191 44.1082 14.5291C44.1282 14.6491 44.1382 14.7491 44.1482 14.8291C44.1482 14.8991 44.1482 14.9491 44.1582 14.9791C44.2282 14.8591 44.2982 14.7391 44.3782 14.6091C44.4382 14.4891 44.5082 14.3691 44.5782 14.2491C44.7082 14.0091 44.8182 13.7891 44.9082 13.5991C44.9882 13.4191 45.0682 13.2491 45.1282 13.0891C45.1782 12.9491 45.2282 12.8091 45.2682 12.6691C45.3082 12.5391 45.3482 12.3991 45.3882 12.2591H44.9482C44.8682 12.2591 44.8082 12.2691 44.7682 12.2791C44.7182 12.2991 44.6782 12.3091 44.6582 12.3191C44.6182 12.3391 44.5882 12.3491 44.5682 12.3591C44.5382 12.3791 44.5082 12.3991 44.4682 12.3991C44.3982 12.6191 44.2982 12.8491 44.1682 13.0891C44.0282 13.3391 43.8582 13.6091 43.6582 13.9091L43.4782 14.1591Z" fill="#333333"/>
</g>
<rect x="38.5" y="5.98914" width="15" height="18.5" stroke="#BD4B2C"/>
<rect x="19.5" y="30.4891" width="15" height="18.5" stroke="#BD4B2C"/>
<path d="M28.8543 40.5091C28.9243 40.4891 29.0043 40.4491 29.1043 40.4091C29.1843 40.3791 29.2743 40.3491 29.3743 40.3091C29.4543 40.2891 29.5443 40.2591 29.6243 40.2391C29.7043 40.2191 29.7643 40.2091 29.8143 40.2091C29.8443 40.2091 29.8943 40.2291 29.9643 40.2491C30.0243 40.2891 30.0843 40.3191 30.1443 40.3591C30.2043 40.4091 30.2543 40.4591 30.3043 40.4991C30.3443 40.5491 30.3743 40.5891 30.3743 40.6191C30.3743 40.6691 30.3643 40.7191 30.3543 40.7791C30.3343 40.8491 30.3143 40.9191 30.2943 40.9791C30.2643 41.0491 30.2343 41.1091 30.2143 41.1591C30.1843 41.2191 30.1643 41.2591 30.1543 41.2791L30.0243 41.9291H30.2243C30.3043 41.9291 30.3643 41.9591 30.4243 42.0191C30.4643 42.0791 30.4843 42.1491 30.4843 42.2291C30.4843 42.2691 30.4743 42.2991 30.4543 42.3391C30.4243 42.3891 30.3843 42.4091 30.3343 42.4091H26.0743V43.0291C26.0743 43.0491 26.0743 43.0891 26.0943 43.1491C26.0943 43.2291 26.1243 43.2891 26.1843 43.3291C26.2443 43.3891 26.3043 43.4191 26.3643 43.4191C26.4143 43.4391 26.4743 43.4391 26.5543 43.4391H29.0943C29.2643 43.4391 29.4043 43.4291 29.5043 43.4091C29.6043 43.3991 29.6843 43.3591 29.7643 43.2891C29.7943 43.2591 29.8143 43.2291 29.8243 43.1891C29.8243 43.1691 29.8243 43.1391 29.8243 43.0991L29.8943 42.9391H29.9343C29.9843 42.9391 30.0443 42.9491 30.1243 42.9591C30.1943 42.9791 30.2743 43.0091 30.3643 43.0491C30.4743 43.1291 30.5543 43.2291 30.6143 43.3691C30.6543 43.5091 30.6543 43.6291 30.6143 43.7191C30.5943 43.7591 30.5643 43.7891 30.5443 43.8191C30.5043 43.8391 30.4643 43.8691 30.4243 43.8891C30.3643 43.8991 30.3043 43.9091 30.2243 43.9191C30.1443 43.9191 30.0343 43.9191 29.9143 43.9191H25.3143C25.1743 43.9191 25.0743 43.8691 24.9943 43.7891C24.9143 43.7091 24.8743 43.6191 24.8743 43.5191V42.3591C24.8743 42.2791 24.8643 42.2291 24.8543 42.1891C24.8343 42.1691 24.8043 42.1491 24.7743 42.1291C24.7543 42.1191 24.7243 42.1091 24.7043 42.1091C24.6743 42.1191 24.6443 42.1191 24.6243 42.0991C24.5843 42.0891 24.5543 42.0591 24.5443 41.9991C24.5243 41.9591 24.5343 41.9091 24.5743 41.8591C24.5843 41.8491 24.6043 41.8391 24.6343 41.8191C24.6543 41.8091 24.7243 41.7991 24.8443 41.7791C24.8843 41.7691 24.9243 41.7591 24.9643 41.7591C25.0043 41.7591 25.0443 41.7591 25.0943 41.7591C25.1943 41.7591 25.3443 41.7691 25.5443 41.7891C25.7243 41.8191 25.8743 41.8491 25.9943 41.8691C26.1143 41.9091 26.1743 41.9291 26.1743 41.9291H28.9443V40.9891H26.4643C26.1843 40.9891 25.9843 41.0091 25.8643 41.0391C25.7343 41.0791 25.6243 41.1091 25.5443 41.1391C25.4843 41.1591 25.4443 41.1791 25.4143 41.1791C25.3743 41.1991 25.3243 41.1991 25.2743 41.1991C25.2343 41.1991 25.1743 41.1791 25.0843 41.1291C24.9843 41.0891 24.9043 41.0091 24.8243 40.8891C24.7843 40.8291 24.7343 40.7391 24.6943 40.6391C24.6443 40.5391 24.6143 40.4591 24.6043 40.3891L24.8643 40.3191L24.8743 40.3291C24.8943 40.3491 24.9243 40.3591 24.9643 40.3691C24.9843 40.3891 25.0343 40.3991 25.0943 40.4191C25.2543 40.4691 25.3743 40.4991 25.4543 40.4991C25.5243 40.5191 25.5643 40.5191 25.5843 40.5191H28.8043L28.8543 40.5091ZM27.7443 35.9291C27.7443 36.1391 27.6443 36.3691 27.4443 36.6191C27.2443 36.8791 26.9643 37.1691 26.6043 37.5091C26.6843 37.5891 26.7643 37.6791 26.8543 37.7591C26.9343 37.8491 27.0043 37.9291 27.0843 37.9891C27.1443 38.0691 27.2043 38.1191 27.2643 38.1591C27.3043 38.2091 27.3343 38.2391 27.3543 38.2391C27.3943 38.2591 27.4343 38.2691 27.4743 38.2491C27.5043 38.2391 27.5343 38.2291 27.5643 38.2091L27.8443 38.2291C27.8743 38.2691 27.9143 38.3491 27.9743 38.4591C28.0143 38.5791 28.0543 38.6991 28.0743 38.8091C28.0843 38.8991 28.1043 38.9891 28.1243 39.0891C28.1343 39.1891 28.1443 39.2791 28.1443 39.3591C28.1443 39.4491 28.1243 39.5191 28.1043 39.5791C28.0643 39.6491 28.0143 39.6891 27.9543 39.6991C27.8743 39.7191 27.7943 39.6891 27.7143 39.6191C27.6143 39.5591 27.5443 39.4991 27.5043 39.4391C27.4243 39.3591 27.3243 39.2491 27.2143 39.1191C27.0943 38.9991 26.9843 38.8591 26.8643 38.7191C26.7443 38.5791 26.6243 38.4391 26.5043 38.2891C26.3743 38.1491 26.2643 38.0291 26.1643 37.9091C25.8743 38.1691 25.5843 38.3991 25.2843 38.6191C24.9843 38.8391 24.6943 39.0291 24.4243 39.1891C24.1443 39.3591 23.9043 39.4991 23.6843 39.5991C23.4643 39.7091 23.2943 39.7791 23.1743 39.7991C23.1143 39.8191 23.0543 39.8291 22.9743 39.8291C22.8943 39.8491 22.8143 39.8391 22.7443 39.8191C22.6843 39.8091 22.6343 39.7891 22.6143 39.7591C22.5743 39.7391 22.5543 39.7091 22.5443 39.6691L22.6743 39.3791C22.7243 39.3991 22.7843 39.4091 22.8443 39.3991C22.8943 39.3991 22.9643 39.3891 23.0643 39.3491C23.1443 39.3191 23.2643 39.2591 23.4243 39.1591C23.5643 39.0691 23.7343 38.9491 23.9243 38.7991C24.1043 38.6591 24.2943 38.4891 24.5043 38.2891C24.7043 38.0991 24.9043 37.8791 25.1043 37.6391C25.2643 37.4591 25.3943 37.2891 25.5143 37.1491C25.6143 37.0091 25.7143 36.8891 25.7943 36.7691C25.8743 36.6691 25.9343 36.5691 25.9943 36.4791C26.0443 36.3991 26.0943 36.3091 26.1343 36.2091H24.8443C24.5843 36.2191 24.3943 36.2391 24.2743 36.2591C24.1543 36.2991 24.0543 36.3291 23.9743 36.3591C23.9143 36.3791 23.8743 36.3991 23.8443 36.3991C23.8043 36.4191 23.7543 36.4191 23.7043 36.4191C23.6643 36.4191 23.6043 36.3991 23.5143 36.3391C23.4143 36.2991 23.3243 36.2091 23.2443 36.0791C23.2043 36.0191 23.1543 35.9391 23.1043 35.8391C23.0443 35.7391 23.0143 35.6591 23.0043 35.5991L23.3243 35.5291C23.3443 35.5491 23.3743 35.5591 23.4343 35.5791C23.4843 35.6091 23.5443 35.6291 23.6043 35.6491C23.7043 35.6891 23.8043 35.7091 23.9043 35.7191C23.9943 35.7391 24.0643 35.7391 24.1143 35.7391L26.1243 35.7291C26.2443 35.6791 26.3743 35.6291 26.5043 35.5791C26.6043 35.5491 26.7243 35.5191 26.8543 35.4791C26.9743 35.4491 27.0843 35.4291 27.1843 35.4291C27.2143 35.4291 27.2643 35.4491 27.3343 35.4791C27.3943 35.5191 27.4543 35.5691 27.5143 35.6091C27.5743 35.6691 27.6243 35.7191 27.6743 35.7791C27.7143 35.8391 27.7443 35.8891 27.7443 35.9291ZM30.2643 39.2791C30.2643 39.4791 30.2343 39.6091 30.1943 39.6891C30.1443 39.7791 30.0543 39.8491 29.9243 39.9091C29.8243 39.9491 29.7043 39.9691 29.5643 39.9691C29.4443 39.9691 29.3543 39.9591 29.2743 39.9391C29.1943 39.9191 29.1143 39.8991 29.0443 39.8591C28.9643 39.8291 28.8943 39.7791 28.8243 39.7191C28.7443 39.6591 28.6843 39.6091 28.6543 39.5591L28.7443 39.4091C28.7743 39.4291 28.8143 39.4391 28.8543 39.4391C28.8843 39.4491 28.9143 39.4491 28.9543 39.4291C29.0243 39.4191 29.0743 39.3891 29.0943 39.3291C29.1143 39.2891 29.1243 39.2191 29.1243 39.1291V34.9991C29.1243 34.9591 29.1043 34.9091 29.0843 34.8491C29.0543 34.8091 29.0243 34.7691 28.9943 34.7291L29.2043 34.5491C29.5543 34.5991 29.8243 34.6591 30.0043 34.7391C30.1743 34.8291 30.2643 34.8891 30.2643 34.9291V39.2791Z" fill="#333333"/>
<g clip-path="url(#clip2_2031_2)">
<path d="M43.9541 38.6491C43.7941 38.6491 43.6441 38.6391 43.4941 38.5991C43.3341 38.5791 43.2041 38.5091 43.1041 38.4091L43.1341 38.1991C43.2141 38.2191 43.2941 38.2091 43.3841 38.1691C43.4641 38.1191 43.5141 38.0591 43.5341 37.9991C43.5441 37.9391 43.5541 37.8591 43.5541 37.7491V35.4591C43.5541 35.3991 43.5441 35.3391 43.5241 35.2991C43.4941 35.2591 43.4641 35.2291 43.4441 35.1891L43.6741 35.0191C44.0341 35.0691 44.3041 35.1391 44.4841 35.2391C44.6541 35.3491 44.7441 35.4191 44.7441 35.4591V35.8091C44.9541 35.6991 45.1641 35.5991 45.3641 35.5191C45.5541 35.4491 45.7441 35.3891 45.9341 35.3291C46.2341 35.2591 46.5241 35.1991 46.8141 35.1391C47.0941 35.0991 47.4041 35.0691 47.7641 35.0591C47.8741 35.0591 47.9941 35.0891 48.1241 35.1291C48.2441 35.1791 48.3541 35.2291 48.4741 35.2891C48.7141 35.4191 48.8741 35.5191 48.9541 35.5991C49.0241 35.6791 49.0641 35.7291 49.0641 35.7491C49.0641 35.8091 49.0341 35.8891 48.9941 35.9891C48.9441 36.0991 48.8941 36.1991 48.8541 36.2891C48.8541 36.3091 48.8441 36.3891 48.8441 36.5391C48.8341 36.6991 48.8241 36.8791 48.8241 37.0691C48.8041 37.2691 48.7941 37.4591 48.7941 37.6291C48.7741 37.8091 48.7641 37.9291 48.7641 37.9791C48.7441 38.0991 48.7041 38.1991 48.6341 38.2791C48.5541 38.3691 48.4441 38.4091 48.2941 38.4091H44.7441V38.4891C44.6241 38.5491 44.5141 38.5891 44.3941 38.6091C44.2641 38.6391 44.1141 38.6491 43.9541 38.6491ZM49.4741 40.0391C49.3841 40.0391 49.2841 40.0291 49.1641 40.0291C49.0341 40.0291 48.9041 40.0291 48.7641 40.0291H46.9541C46.9341 40.0491 46.9241 40.0791 46.9241 40.1191C46.9141 40.1391 46.9141 40.1791 46.9141 40.2191C46.9041 40.2691 46.9041 40.3191 46.9041 40.3591C46.8941 40.4191 46.8941 40.4591 46.8941 40.4991C46.8941 40.5491 46.8941 40.5791 46.8941 40.5991C46.8941 40.6291 46.8941 40.6791 46.9041 40.7591C46.9041 40.8391 46.9041 40.9291 46.9041 41.0191C46.9041 41.1191 46.9041 41.2091 46.9141 41.2891C46.9141 41.3791 46.9141 41.4391 46.9141 41.4791C46.9141 41.5891 46.8941 41.6691 46.8541 41.7291C46.8041 41.7891 46.7141 41.8591 46.5841 41.9291C46.4841 41.9891 46.3841 42.0291 46.3041 42.0491C46.2141 42.0891 46.0941 42.1191 45.9541 42.1591C45.8541 42.1891 45.7741 42.1991 45.7341 42.1991L45.6241 41.9591L45.6941 41.7991C45.7041 41.7391 45.7141 41.6791 45.7241 41.6091C45.7241 41.5491 45.7341 41.5191 45.7341 41.4991V40.0291H43.8641C43.6641 40.0291 43.4941 40.0391 43.3641 40.0491C43.2241 40.0691 43.1141 40.0791 43.0241 40.0991C42.9241 40.1291 42.8541 40.1491 42.7941 40.1691C42.7241 40.1991 42.6641 40.2191 42.6241 40.2391C42.5841 40.2591 42.5341 40.2791 42.4741 40.2991C42.4141 40.3291 42.3541 40.3391 42.3041 40.3391C42.2641 40.3391 42.2041 40.3191 42.1041 40.2791C42.0041 40.2491 41.9041 40.1791 41.8041 40.0591C41.6841 39.9391 41.5941 39.8091 41.5341 39.6791C41.4741 39.5591 41.4241 39.4491 41.3941 39.3491L41.7241 39.2091L41.8141 39.2591C41.8941 39.3091 41.9841 39.3491 42.1041 39.3891C42.2041 39.4391 42.3141 39.4691 42.4241 39.4891C42.5241 39.5091 42.6341 39.5291 42.7641 39.5291C42.8841 39.5391 42.9741 39.5391 43.0541 39.5391L45.6141 39.5291H48.4841C48.6541 39.5291 48.8041 39.5191 48.9241 39.4891C49.0441 39.4691 49.1441 39.4291 49.2241 39.3891C49.2941 39.3591 49.3541 39.3191 49.3941 39.2691C49.4341 39.2291 49.4541 39.1791 49.4741 39.1391L49.7441 39.0491L49.9041 39.1291C49.9441 39.1591 50.0041 39.1891 50.0641 39.2291C50.1241 39.2691 50.1841 39.3191 50.2441 39.3791C50.3341 39.4791 50.4041 39.5591 50.4441 39.6391C50.4841 39.7191 50.5041 39.7791 50.5241 39.8191C50.5441 39.8791 50.5541 39.9391 50.5541 39.9791C50.5541 40.0391 50.5241 40.0791 50.4741 40.1191C50.4141 40.1591 50.3541 40.1791 50.2741 40.1591C50.1941 40.1591 50.1241 40.1491 50.0641 40.1291C49.9441 40.1091 49.8541 40.0891 49.7741 40.0691C49.6841 40.0591 49.5841 40.0491 49.4741 40.0391ZM44.7441 37.9391H47.2941C47.4341 37.9391 47.5441 37.9191 47.6041 37.8691C47.6641 37.8291 47.6941 37.7491 47.6941 37.6091V35.5791C47.4941 35.5791 47.2641 35.5991 46.9941 35.6291C46.7141 35.6691 46.3941 35.7491 46.0441 35.8491C45.7941 35.9291 45.5541 36.0191 45.3241 36.1191C45.0841 36.2291 44.8941 36.3291 44.7441 36.4191V37.9391ZM48.9641 42.9491C49.0341 42.9991 49.0941 43.0791 49.1541 43.1891C49.2041 43.3091 49.2241 43.4091 49.2141 43.4991C49.2141 43.5291 49.2041 43.5691 49.2041 43.6091C49.1841 43.6591 49.1641 43.7091 49.1341 43.7491C49.0941 43.7891 49.0341 43.8191 48.9641 43.8591C48.8841 43.8891 48.7741 43.9091 48.6341 43.9091H44.0841C43.8441 43.9091 43.6641 43.8291 43.5341 43.6691C43.3941 43.5191 43.3341 43.3191 43.3341 43.0791V41.7791C43.3341 41.7091 43.3241 41.6491 43.3141 41.6091C43.2941 41.5791 43.2641 41.5491 43.2141 41.5191C43.1741 41.5091 43.1341 41.4991 43.0841 41.4891C43.0241 41.4891 42.9941 41.4491 42.9941 41.3891C42.9741 41.3091 43.0141 41.2591 43.1041 41.2191C43.1841 41.1991 43.2741 41.1791 43.3941 41.1691C43.5041 41.1691 43.6141 41.1691 43.7341 41.1691C43.8441 41.1791 43.9241 41.1891 43.9641 41.1891C44.1041 41.2091 44.2341 41.2491 44.3541 41.3291C44.4641 41.4191 44.5241 41.5291 44.5241 41.6491V43.0191C44.5241 43.1591 44.5641 43.2591 44.6641 43.3191C44.7441 43.3991 44.8641 43.4291 45.0141 43.4291H47.6641C47.8441 43.4291 47.9741 43.4291 48.0741 43.4091C48.1541 43.3991 48.2341 43.3591 48.3141 43.2791C48.3741 43.2291 48.4141 43.1791 48.4341 43.1191C48.4341 43.0691 48.4341 43.0291 48.4241 42.9891L48.5041 42.8391C48.5741 42.8391 48.6541 42.8491 48.7341 42.8491C48.8141 42.8691 48.8841 42.8991 48.9641 42.9491Z" fill="#333333"/>
</g>
<rect x="38.5" y="30.4891" width="15" height="18.5" stroke="#BD4B2C"/>
<defs>
<clipPath id="clip0_2031_2">
<rect x="19" y="5.48914" width="16" height="19.5" fill="white"/>
</clipPath>
<clipPath id="clip1_2031_2">
<rect x="38" y="5.48914" width="16" height="19.5" fill="white"/>
</clipPath>
<clipPath id="clip2_2031_2">
<rect x="38" y="29.9891" width="16" height="19.5" fill="white"/>
</clipPath>
</defs>
</svg>
