<svg width="54" height="54" viewBox="0 0 54 54" fill="none" xmlns="http://www.w3.org/2000/svg">
<rect x="0.5" y="5.5" width="15" height="18.5" stroke="#BD4B2C"/>
<path d="M10.0063 17.94C10.0063 18.14 9.98625 18.28 9.94625 18.36C9.90625 18.44 9.81958 18.51 9.68625 18.57C9.63958 18.59 9.59625 18.6067 9.55625 18.62C9.52292 18.6333 9.46958 18.64 9.39625 18.64C9.28292 18.64 9.18625 18.63 9.10625 18.61C9.02625 18.5833 8.94958 18.5533 8.87625 18.52C8.79625 18.4867 8.72958 18.4433 8.67625 18.39C8.62958 18.3367 8.58958 18.29 8.55625 18.25L8.64625 18.1C8.67292 18.1067 8.69625 18.1133 8.71625 18.12C8.74292 18.1267 8.76958 18.1233 8.79625 18.11C8.86958 18.0967 8.91292 18.0633 8.92625 18.01C8.94625 17.95 8.95625 17.88 8.95625 17.8V13.53C8.81625 13.55 8.69958 13.5733 8.60625 13.6C8.51958 13.6267 8.44292 13.6533 8.37625 13.68C8.34958 13.6933 8.31958 13.7067 8.28625 13.72C8.25958 13.7333 8.22625 13.7467 8.18625 13.76C8.13958 13.7733 8.07958 13.7667 8.00625 13.74C7.93292 13.7067 7.83958 13.65 7.72625 13.57C7.63292 13.5033 7.55292 13.4233 7.48625 13.33C7.41958 13.2367 7.34625 13.1033 7.26625 12.93L7.51625 12.83L7.59625 12.86C7.68958 12.9 7.79958 12.9333 7.92625 12.96C8.05292 12.9867 8.17292 13 8.28625 13H8.95625V10.49C8.95625 10.4433 8.94292 10.3967 8.91625 10.35C8.88958 10.2967 8.85958 10.2533 8.82625 10.22L9.02625 9.99C9.38625 10.0367 9.63958 10.1033 9.78625 10.19C9.93292 10.27 10.0063 10.3333 10.0063 10.38V17.94ZM11.7463 18.44C11.7463 18.64 11.7263 18.78 11.6863 18.86C11.6463 18.94 11.5596 19.01 11.4263 19.07C11.3796 19.0967 11.3363 19.1133 11.2963 19.12C11.2629 19.1333 11.2096 19.14 11.1363 19.14C11.0229 19.14 10.9263 19.1267 10.8463 19.1C10.7663 19.08 10.6896 19.0567 10.6163 19.03C10.5363 19.0033 10.4596 18.9567 10.3863 18.89C10.3129 18.83 10.2563 18.7767 10.2163 18.73L10.3163 18.58C10.3963 18.6 10.4663 18.6067 10.5263 18.6C10.5996 18.5867 10.6463 18.5533 10.6663 18.5C10.6863 18.4467 10.6963 18.38 10.6963 18.3V10.05C10.6963 9.99667 10.6829 9.94667 10.6563 9.9C10.6296 9.84667 10.5996 9.80333 10.5663 9.77L10.7763 9.59C11.1363 9.63667 11.3863 9.70333 11.5263 9.79C11.6729 9.87 11.7463 9.93333 11.7463 9.98V18.44ZM6.14625 13.95C5.97958 14.1633 5.79625 14.3733 5.59625 14.58C5.40292 14.78 5.20625 14.9633 5.00625 15.13C4.79958 15.3033 4.59958 15.4533 4.40625 15.58C4.21292 15.7 4.04292 15.7867 3.89625 15.84C3.82292 15.8667 3.74625 15.89 3.66625 15.91C3.59292 15.9233 3.51958 15.93 3.44625 15.93C3.39292 15.93 3.34625 15.92 3.30625 15.9C3.26625 15.88 3.23625 15.86 3.21625 15.84C3.18958 15.8133 3.16958 15.7833 3.15625 15.75L3.29625 15.5C3.33625 15.52 3.37958 15.5333 3.42625 15.54C3.46625 15.5467 3.50958 15.5467 3.55625 15.54C3.60958 15.5333 3.66292 15.5133 3.71625 15.48C3.83625 15.4 3.96625 15.2833 4.10625 15.13C4.24625 14.97 4.38958 14.7933 4.53625 14.6C4.67625 14.4133 4.81292 14.2167 4.94625 14.01C5.08625 13.7967 5.20958 13.5967 5.31625 13.41C5.41625 13.2367 5.50625 13.06 5.58625 12.88C5.67292 12.7 5.74958 12.5233 5.81625 12.35C5.87625 12.1833 5.92625 12.0267 5.96625 11.88C6.00625 11.7267 6.02625 11.5967 6.02625 11.49C6.03958 11.3633 5.99292 11.2233 5.88625 11.07C5.85292 11.0233 5.82292 10.9867 5.79625 10.96C5.76958 10.9267 5.74958 10.9 5.73625 10.88C5.71625 10.8533 5.69958 10.8333 5.68625 10.82L5.98625 10.61C6.05292 10.63 6.11958 10.6533 6.18625 10.68C6.23958 10.7 6.29958 10.7267 6.36625 10.76C6.43292 10.7867 6.49625 10.8133 6.55625 10.84C6.75625 10.9533 6.93625 11.0767 7.09625 11.21C7.25625 11.3433 7.32958 11.46 7.31625 11.56C7.27625 11.8533 7.20292 12.1333 7.09625 12.4C6.98958 12.66 6.84958 12.9267 6.67625 13.2C6.77625 13.3533 6.87625 13.51 6.97625 13.67C7.08292 13.8233 7.19958 13.9733 7.32625 14.12C7.41958 14.2333 7.50625 14.29 7.58625 14.29C7.66625 14.29 7.71292 14.2833 7.72625 14.27L7.99625 14.32C8.02958 14.3667 8.06958 14.4433 8.11625 14.55C8.16292 14.6567 8.20292 14.7767 8.23625 14.91C8.26958 15.03 8.28625 15.15 8.28625 15.27C8.28625 15.3833 8.28292 15.5367 8.27625 15.73C8.26292 15.8367 8.22958 15.9167 8.17625 15.97C8.12958 16.0167 8.08292 16.04 8.03625 16.04C7.98292 16.04 7.93625 16.02 7.89625 15.98C7.85625 15.9333 7.80958 15.8733 7.75625 15.8C7.73625 15.78 7.70292 15.74 7.65625 15.68C7.61625 15.62 7.57292 15.5567 7.52625 15.49C7.47292 15.4233 7.42292 15.3567 7.37625 15.29C7.33625 15.2233 7.30292 15.17 7.27625 15.13C7.17625 14.9967 7.03958 14.8033 6.86625 14.55C6.69292 14.29 6.50958 14.0167 6.31625 13.73L6.14625 13.95Z" fill="#333333"/>
<g clip-path="url(#clip0_2031_34)">
<path d="M27.8663 14.33C27.8663 14.47 27.8163 14.57 27.7363 14.65C27.6363 14.74 27.5363 14.78 27.4263 14.78L24.6363 14.77V15.04C24.5463 15.11 24.4263 15.15 24.2763 15.17C24.1163 15.19 23.9663 15.2 23.8463 15.2C23.6763 15.2 23.5263 15.18 23.3863 15.14C23.2463 15.11 23.1163 15.05 23.0063 14.96L23.0663 14.72C23.0963 14.74 23.1363 14.74 23.1863 14.74C23.2263 14.74 23.2563 14.74 23.2963 14.72C23.3863 14.68 23.4363 14.63 23.4563 14.57C23.4563 14.52 23.4663 14.45 23.4663 14.37V11.11C23.4663 11.04 23.4463 10.97 23.4263 10.9C23.3863 10.84 23.3563 10.78 23.3263 10.72L23.4563 10.51C23.8563 10.56 24.1463 10.63 24.3363 10.71C24.5163 10.8 24.6163 10.87 24.6363 10.91V12.38C24.7163 12.32 24.8163 12.25 24.9163 12.18C24.9963 12.13 25.0962 12.07 25.2163 12.01C25.3163 11.96 25.4263 11.92 25.5463 11.88C25.8263 11.8 26.0663 11.75 26.2663 11.73C26.4663 11.73 26.6163 11.72 26.7363 11.72V10.81C26.7363 10.65 26.7063 10.52 26.6463 10.42L26.7163 10.22C26.8263 10.22 26.9563 10.22 27.0963 10.23C27.2363 10.25 27.3463 10.27 27.4463 10.29C27.6063 10.33 27.7463 10.38 27.8563 10.43C27.9563 10.49 28.0063 10.54 28.0063 10.6C28.0063 10.7 27.9863 10.79 27.9663 10.85C27.9263 10.93 27.8963 11 27.8663 11.06V12.44C27.9463 12.46 28.0263 12.48 28.1163 12.48C28.1963 12.49 28.2863 12.49 28.3663 12.49H29.3463V9.96C29.3463 9.91 29.3363 9.86 29.3163 9.81C29.2863 9.77 29.2563 9.72 29.2263 9.68L29.4263 9.55C29.7863 9.6 30.0463 9.66 30.2263 9.74C30.3963 9.83 30.4863 9.9 30.4863 9.94V16.02C30.4863 16.22 30.4663 16.35 30.4263 16.43C30.3763 16.51 30.2863 16.58 30.1563 16.64C30.0563 16.68 29.9363 16.7 29.7963 16.7C29.6763 16.7 29.5863 16.69 29.5063 16.67C29.4263 16.65 29.3463 16.63 29.2763 16.6C29.1963 16.57 29.1163 16.52 29.0463 16.46C28.9663 16.4 28.9163 16.35 28.8863 16.3L28.9763 16.15C29.0563 16.17 29.1263 16.18 29.1863 16.17C29.2563 16.16 29.3063 16.13 29.3263 16.07C29.3363 16.02 29.3463 15.95 29.3463 15.87V12.98C29.0863 13 28.9063 13.02 28.7863 13.06C28.6563 13.1 28.5463 13.14 28.4563 13.17C28.4263 13.19 28.3963 13.2 28.3763 13.21C28.3363 13.23 28.3063 13.24 28.2663 13.25C28.1663 13.27 28.0362 13.23 27.8663 13.11V14.33ZM30.4963 17.94C30.5663 17.99 30.6263 18.06 30.6863 18.16C30.7363 18.27 30.7563 18.38 30.7463 18.49C30.7463 18.51 30.7363 18.55 30.7363 18.59C30.7163 18.64 30.6963 18.69 30.6663 18.73C30.6263 18.77 30.5663 18.8 30.4963 18.84C30.4163 18.87 30.3063 18.89 30.1663 18.89H25.8463C25.6163 18.89 25.4363 18.81 25.3063 18.66C25.1663 18.51 25.0962 18.31 25.0962 18.07V16.7C25.0962 16.63 25.0863 16.57 25.0763 16.53C25.0563 16.5 25.0263 16.47 24.9763 16.45C24.9263 16.44 24.8763 16.43 24.8263 16.41C24.7663 16.41 24.7463 16.37 24.7463 16.3C24.7463 16.23 24.7863 16.18 24.8763 16.14C24.9563 16.12 25.0463 16.1 25.1663 16.09C25.2663 16.09 25.3763 16.1 25.4863 16.1C25.5863 16.11 25.6663 16.12 25.7263 16.12C25.8663 16.14 25.9963 16.19 26.1163 16.27C26.2263 16.35 26.2863 16.46 26.2863 16.58V18C26.2863 18.14 26.3263 18.24 26.4263 18.31C26.5063 18.39 26.6263 18.42 26.7763 18.42H29.1963C29.3763 18.42 29.5063 18.42 29.6063 18.4C29.6863 18.39 29.7663 18.35 29.8463 18.27C29.9063 18.22 29.9363 18.17 29.9563 18.11C29.9563 18.06 29.9563 18.02 29.9463 17.98L30.0363 17.83C30.1063 17.83 30.1863 17.84 30.2663 17.85C30.3463 17.87 30.4163 17.9 30.4963 17.94ZM26.7363 12.23C26.6563 12.23 26.5763 12.23 26.4963 12.23C26.4163 12.23 26.3263 12.24 26.2363 12.24C26.1363 12.26 26.0363 12.28 25.9363 12.3C25.8163 12.33 25.6863 12.37 25.5463 12.43C25.3263 12.52 25.1563 12.61 25.0163 12.7C24.8763 12.8 24.7463 12.9 24.6363 13V14.29H26.3563C26.4363 14.29 26.4963 14.29 26.5563 14.27C26.5963 14.26 26.6363 14.23 26.6663 14.19C26.6863 14.15 26.7063 14.09 26.7263 14.01C26.7263 13.94 26.7363 13.84 26.7363 13.7V12.23Z" fill="#333333"/>
</g>
<rect x="19.5" y="5.5" width="15" height="18.5" stroke="#BD4B2C"/>
<g clip-path="url(#clip1_2031_34)">
<path d="M48.1082 17.96C48.1082 18.16 48.0882 18.3 48.0482 18.38C48.0082 18.46 47.9182 18.53 47.7882 18.59C47.7382 18.61 47.6982 18.63 47.6682 18.63C47.6282 18.65 47.5682 18.65 47.4982 18.65C47.3782 18.65 47.2882 18.64 47.2082 18.62C47.1282 18.6 47.0482 18.58 46.9782 18.54C46.8982 18.51 46.8282 18.47 46.7882 18.41C46.7282 18.36 46.6882 18.31 46.6582 18.26L46.7482 18.11C46.8182 18.15 46.8782 18.16 46.9182 18.15C46.9882 18.13 47.0282 18.1 47.0482 18.04C47.0482 17.99 47.0582 17.92 47.0582 17.83V10.48C47.0582 10.44 47.0382 10.39 47.0182 10.33C46.9882 10.29 46.9582 10.25 46.9282 10.21L47.1282 9.98C47.4882 10.03 47.7382 10.1 47.8882 10.18C48.0282 10.27 48.1082 10.33 48.1082 10.37V13.08C48.3082 13.06 48.4882 13.03 48.6282 12.97C48.7682 12.92 48.8782 12.86 48.9682 12.8V10.04C48.9682 9.99 48.9482 9.94 48.9282 9.88C48.8982 9.84 48.8682 9.8 48.8382 9.76L49.0482 9.58C49.4082 9.63 49.6582 9.69 49.8082 9.77C49.9482 9.86 50.0282 9.93 50.0282 9.97V18.38C50.0282 18.58 50.0082 18.72 49.9782 18.8C49.9382 18.88 49.8582 18.95 49.7482 19.01C49.6482 19.05 49.5382 19.07 49.4182 19.07C49.2982 19.07 49.2082 19.06 49.1282 19.04C49.0382 19.02 48.9582 18.99 48.8882 18.97C48.8082 18.93 48.7282 18.89 48.6582 18.83C48.5782 18.76 48.5282 18.71 48.4982 18.66L48.5882 18.51C48.6682 18.53 48.7382 18.54 48.7982 18.53C48.8682 18.52 48.9182 18.49 48.9382 18.43C48.9582 18.39 48.9682 18.32 48.9682 18.23V13.56H48.1082V17.96ZM46.6082 11.49C46.6082 11.65 46.5782 11.83 46.5182 12.03C46.4482 12.25 46.3682 12.46 46.2782 12.68C46.1782 12.9 46.0782 13.12 45.9682 13.32C45.8482 13.54 45.7382 13.72 45.6382 13.87C45.7182 14.03 45.7982 14.19 45.8882 14.33C45.9682 14.48 46.0182 14.56 46.0582 14.58C46.0982 14.61 46.1282 14.61 46.1582 14.58C46.1782 14.56 46.2082 14.55 46.2482 14.54L46.5282 14.59C46.5582 14.65 46.5882 14.74 46.6282 14.86C46.6482 14.99 46.6682 15.1 46.6782 15.18C46.6782 15.22 46.6782 15.3 46.6882 15.4C46.6882 15.51 46.6882 15.62 46.6882 15.72C46.6682 15.84 46.6482 15.94 46.6182 16.02C46.5782 16.11 46.5282 16.15 46.4482 16.15C46.3882 16.15 46.3382 16.12 46.2782 16.05C46.2182 15.99 46.1582 15.92 46.0982 15.83C46.0382 15.75 45.9782 15.66 45.9382 15.56C45.8782 15.48 45.8382 15.4 45.8082 15.34C45.7382 15.23 45.6582 15.08 45.5582 14.89C45.4582 14.71 45.3582 14.54 45.2682 14.37C45.0882 14.61 44.8882 14.83 44.6882 15.05C44.4782 15.28 44.2782 15.48 44.0882 15.66C43.8882 15.84 43.6982 15.99 43.5282 16.09C43.3482 16.21 43.1982 16.26 43.0782 16.26C42.9782 16.26 42.8982 16.25 42.8282 16.23C42.7482 16.22 42.6982 16.21 42.6682 16.19L42.7782 15.71C42.8482 15.75 42.9182 15.76 42.9982 15.73C43.1182 15.7 43.2582 15.62 43.3982 15.48C43.5282 15.35 43.6682 15.19 43.8082 15C43.7482 14.94 43.6882 14.85 43.6082 14.72C43.5282 14.6 43.4182 14.44 43.2782 14.24L43.1482 14.07C43.0082 14.23 42.8582 14.39 42.7182 14.53C42.5682 14.69 42.4282 14.82 42.2882 14.93C42.1382 15.05 41.9982 15.14 41.8782 15.2C41.7482 15.28 41.6382 15.31 41.5582 15.31C41.4682 15.31 41.4082 15.31 41.3782 15.29C41.3382 15.28 41.2982 15.26 41.2682 15.24L41.3582 14.8C41.3782 14.82 41.3982 14.82 41.4182 14.82C41.4282 14.82 41.4582 14.82 41.5182 14.82C41.5782 14.82 41.6682 14.78 41.7782 14.69C41.8782 14.61 41.9882 14.5 42.1082 14.35C42.2182 14.21 42.3382 14.05 42.4582 13.85C42.5782 13.66 42.6882 13.46 42.7882 13.24C42.8682 13.06 42.9382 12.9 42.9982 12.77C43.0482 12.65 43.0882 12.53 43.1282 12.42C43.1582 12.32 43.1882 12.22 43.2282 12.12C43.2482 12.02 43.2882 11.91 43.3282 11.77H43.1482C43.0482 11.77 42.9782 11.78 42.9182 11.79C42.8482 11.81 42.7782 11.83 42.7082 11.86C42.6482 11.89 42.6082 11.91 42.5782 11.91C42.5382 11.93 42.4982 11.93 42.4482 11.93C42.4082 11.93 42.3482 11.91 42.2682 11.87C42.1782 11.83 42.0882 11.76 41.9982 11.64C41.9482 11.58 41.8982 11.5 41.8582 11.39C41.7982 11.29 41.7682 11.21 41.7582 11.14L42.0182 11.07C42.0382 11.09 42.0782 11.11 42.1382 11.13C42.1782 11.16 42.2382 11.18 42.2982 11.2C42.4382 11.26 42.5582 11.28 42.6382 11.28C42.7082 11.29 42.7482 11.29 42.7682 11.29H43.1382L43.1582 11.28C43.2282 11.26 43.3082 11.23 43.4082 11.19C43.4882 11.17 43.5782 11.14 43.6782 11.11C43.7582 11.09 43.8482 11.07 43.9282 11.05C43.9982 11.04 44.0582 11.03 44.1082 11.03C44.1382 11.03 44.1882 11.06 44.2682 11.11C44.3382 11.17 44.3982 11.23 44.4582 11.29H44.5982H45.1382C45.1982 11.27 45.2682 11.24 45.3582 11.2C45.4382 11.18 45.5182 11.15 45.6082 11.12C45.6882 11.1 45.7782 11.07 45.8582 11.05C45.9382 11.04 45.9982 11.03 46.0482 11.03C46.0682 11.03 46.1182 11.05 46.1782 11.08C46.2382 11.12 46.2982 11.16 46.3682 11.2C46.4282 11.25 46.4782 11.3 46.5382 11.35C46.5782 11.41 46.6082 11.45 46.6082 11.49ZM43.4782 13.67C43.5182 13.73 43.5582 13.77 43.5882 13.77C43.6282 13.79 43.6582 13.79 43.6882 13.77C43.7082 13.76 43.7382 13.75 43.7782 13.74L44.0282 13.79C44.0582 13.85 44.0882 13.93 44.1082 14.04C44.1282 14.16 44.1382 14.26 44.1482 14.34C44.1482 14.41 44.1482 14.46 44.1582 14.49C44.2282 14.37 44.2982 14.25 44.3782 14.12C44.4382 14 44.5082 13.88 44.5782 13.76C44.7082 13.52 44.8182 13.3 44.9082 13.11C44.9882 12.93 45.0682 12.76 45.1282 12.6C45.1782 12.46 45.2282 12.32 45.2682 12.18C45.3082 12.05 45.3482 11.91 45.3882 11.77H44.9482C44.8682 11.77 44.8082 11.78 44.7682 11.79C44.7182 11.81 44.6782 11.82 44.6582 11.83C44.6182 11.85 44.5882 11.86 44.5682 11.87C44.5382 11.89 44.5082 11.91 44.4682 11.91C44.3982 12.13 44.2982 12.36 44.1682 12.6C44.0282 12.85 43.8582 13.12 43.6582 13.42L43.4782 13.67Z" fill="#333333"/>
</g>
<rect x="38.5" y="5.5" width="15" height="18.5" stroke="#BD4B2C"/>
<rect x="19.5" y="30" width="15" height="18.5" stroke="#BD4B2C"/>
<path d="M28.8543 40.02C28.9243 40 29.0043 39.96 29.1043 39.92C29.1843 39.89 29.2743 39.86 29.3743 39.82C29.4543 39.8 29.5443 39.77 29.6243 39.75C29.7043 39.73 29.7643 39.72 29.8143 39.72C29.8443 39.72 29.8943 39.74 29.9643 39.76C30.0243 39.8 30.0843 39.83 30.1443 39.87C30.2043 39.92 30.2543 39.97 30.3043 40.01C30.3443 40.06 30.3743 40.1 30.3743 40.13C30.3743 40.18 30.3643 40.23 30.3543 40.29C30.3343 40.36 30.3143 40.43 30.2943 40.49C30.2643 40.56 30.2343 40.62 30.2143 40.67C30.1843 40.73 30.1643 40.77 30.1543 40.79L30.0243 41.44H30.2243C30.3043 41.44 30.3643 41.47 30.4243 41.53C30.4643 41.59 30.4843 41.66 30.4843 41.74C30.4843 41.78 30.4743 41.81 30.4543 41.85C30.4243 41.9 30.3843 41.92 30.3343 41.92H26.0743V42.54C26.0743 42.56 26.0743 42.6 26.0943 42.66C26.0943 42.74 26.1243 42.8 26.1843 42.84C26.2443 42.9 26.3043 42.93 26.3643 42.93C26.4143 42.95 26.4743 42.95 26.5543 42.95H29.0943C29.2643 42.95 29.4043 42.94 29.5043 42.92C29.6043 42.91 29.6843 42.87 29.7643 42.8C29.7943 42.77 29.8143 42.74 29.8243 42.7C29.8243 42.68 29.8243 42.65 29.8243 42.61L29.8943 42.45H29.9343C29.9843 42.45 30.0443 42.46 30.1243 42.47C30.1943 42.49 30.2743 42.52 30.3643 42.56C30.4743 42.64 30.5543 42.74 30.6143 42.88C30.6543 43.02 30.6543 43.14 30.6143 43.23C30.5943 43.27 30.5643 43.3 30.5443 43.33C30.5043 43.35 30.4643 43.38 30.4243 43.4C30.3643 43.41 30.3043 43.42 30.2243 43.43C30.1443 43.43 30.0343 43.43 29.9143 43.43H25.3143C25.1743 43.43 25.0743 43.38 24.9943 43.3C24.9143 43.22 24.8743 43.13 24.8743 43.03V41.87C24.8743 41.79 24.8643 41.74 24.8543 41.7C24.8343 41.68 24.8043 41.66 24.7743 41.64C24.7543 41.63 24.7243 41.62 24.7043 41.62C24.6743 41.63 24.6443 41.63 24.6243 41.61C24.5843 41.6 24.5543 41.57 24.5443 41.51C24.5243 41.47 24.5343 41.42 24.5743 41.37C24.5843 41.36 24.6043 41.35 24.6343 41.33C24.6543 41.32 24.7243 41.31 24.8443 41.29C24.8843 41.28 24.9243 41.27 24.9643 41.27C25.0043 41.27 25.0443 41.27 25.0943 41.27C25.1943 41.27 25.3443 41.28 25.5443 41.3C25.7243 41.33 25.8743 41.36 25.9943 41.38C26.1143 41.42 26.1743 41.44 26.1743 41.44H28.9443V40.5H26.4643C26.1843 40.5 25.9843 40.52 25.8643 40.55C25.7343 40.59 25.6243 40.62 25.5443 40.65C25.4843 40.67 25.4443 40.69 25.4143 40.69C25.3743 40.71 25.3243 40.71 25.2743 40.71C25.2343 40.71 25.1743 40.69 25.0843 40.64C24.9843 40.6 24.9043 40.52 24.8243 40.4C24.7843 40.34 24.7343 40.25 24.6943 40.15C24.6443 40.05 24.6143 39.97 24.6043 39.9L24.8643 39.83L24.8743 39.84C24.8943 39.86 24.9243 39.87 24.9643 39.88C24.9843 39.9 25.0343 39.91 25.0943 39.93C25.2543 39.98 25.3743 40.01 25.4543 40.01C25.5243 40.03 25.5643 40.03 25.5843 40.03H28.8043L28.8543 40.02ZM27.7443 35.44C27.7443 35.65 27.6443 35.88 27.4443 36.13C27.2443 36.39 26.9643 36.68 26.6043 37.02C26.6843 37.1 26.7643 37.19 26.8543 37.27C26.9343 37.36 27.0043 37.44 27.0843 37.5C27.1443 37.58 27.2043 37.63 27.2643 37.67C27.3043 37.72 27.3343 37.75 27.3543 37.75C27.3943 37.77 27.4343 37.78 27.4743 37.76C27.5043 37.75 27.5343 37.74 27.5643 37.72L27.8443 37.74C27.8743 37.78 27.9143 37.86 27.9743 37.97C28.0143 38.09 28.0543 38.21 28.0743 38.32C28.0843 38.41 28.1043 38.5 28.1243 38.6C28.1343 38.7 28.1443 38.79 28.1443 38.87C28.1443 38.96 28.1243 39.03 28.1043 39.09C28.0643 39.16 28.0143 39.2 27.9543 39.21C27.8743 39.23 27.7943 39.2 27.7143 39.13C27.6143 39.07 27.5443 39.01 27.5043 38.95C27.4243 38.87 27.3243 38.76 27.2143 38.63C27.0943 38.51 26.9843 38.37 26.8643 38.23C26.7443 38.09 26.6243 37.95 26.5043 37.8C26.3743 37.66 26.2643 37.54 26.1643 37.42C25.8743 37.68 25.5843 37.91 25.2843 38.13C24.9843 38.35 24.6943 38.54 24.4243 38.7C24.1443 38.87 23.9043 39.01 23.6843 39.11C23.4643 39.22 23.2943 39.29 23.1743 39.31C23.1143 39.33 23.0543 39.34 22.9743 39.34C22.8943 39.36 22.8143 39.35 22.7443 39.33C22.6843 39.32 22.6343 39.3 22.6143 39.27C22.5743 39.25 22.5543 39.22 22.5443 39.18L22.6743 38.89C22.7243 38.91 22.7843 38.92 22.8443 38.91C22.8943 38.91 22.9643 38.9 23.0643 38.86C23.1443 38.83 23.2643 38.77 23.4243 38.67C23.5643 38.58 23.7343 38.46 23.9243 38.31C24.1043 38.17 24.2943 38 24.5043 37.8C24.7043 37.61 24.9043 37.39 25.1043 37.15C25.2643 36.97 25.3943 36.8 25.5143 36.66C25.6143 36.52 25.7143 36.4 25.7943 36.28C25.8743 36.18 25.9343 36.08 25.9943 35.99C26.0443 35.91 26.0943 35.82 26.1343 35.72H24.8443C24.5843 35.73 24.3943 35.75 24.2743 35.77C24.1543 35.81 24.0543 35.84 23.9743 35.87C23.9143 35.89 23.8743 35.91 23.8443 35.91C23.8043 35.93 23.7543 35.93 23.7043 35.93C23.6643 35.93 23.6043 35.91 23.5143 35.85C23.4143 35.81 23.3243 35.72 23.2443 35.59C23.2043 35.53 23.1543 35.45 23.1043 35.35C23.0443 35.25 23.0143 35.17 23.0043 35.11L23.3243 35.04C23.3443 35.06 23.3743 35.07 23.4343 35.09C23.4843 35.12 23.5443 35.14 23.6043 35.16C23.7043 35.2 23.8043 35.22 23.9043 35.23C23.9943 35.25 24.0643 35.25 24.1143 35.25L26.1243 35.24C26.2443 35.19 26.3743 35.14 26.5043 35.09C26.6043 35.06 26.7243 35.03 26.8543 34.99C26.9743 34.96 27.0843 34.94 27.1843 34.94C27.2143 34.94 27.2643 34.96 27.3343 34.99C27.3943 35.03 27.4543 35.08 27.5143 35.12C27.5743 35.18 27.6243 35.23 27.6743 35.29C27.7143 35.35 27.7443 35.4 27.7443 35.44ZM30.2643 38.79C30.2643 38.99 30.2343 39.12 30.1943 39.2C30.1443 39.29 30.0543 39.36 29.9243 39.42C29.8243 39.46 29.7043 39.48 29.5643 39.48C29.4443 39.48 29.3543 39.47 29.2743 39.45C29.1943 39.43 29.1143 39.41 29.0443 39.37C28.9643 39.34 28.8943 39.29 28.8243 39.23C28.7443 39.17 28.6843 39.12 28.6543 39.07L28.7443 38.92C28.7743 38.94 28.8143 38.95 28.8543 38.95C28.8843 38.96 28.9143 38.96 28.9543 38.94C29.0243 38.93 29.0743 38.9 29.0943 38.84C29.1143 38.8 29.1243 38.73 29.1243 38.64V34.51C29.1243 34.47 29.1043 34.42 29.0843 34.36C29.0543 34.32 29.0243 34.28 28.9943 34.24L29.2043 34.06C29.5543 34.11 29.8243 34.17 30.0043 34.25C30.1743 34.34 30.2643 34.4 30.2643 34.44V38.79Z" fill="#333333"/>
<g clip-path="url(#clip2_2031_34)">
<path d="M43.9541 38.16C43.7941 38.16 43.6441 38.15 43.4941 38.11C43.3341 38.09 43.2041 38.02 43.1041 37.92L43.1341 37.71C43.2141 37.73 43.2941 37.72 43.3841 37.68C43.4641 37.63 43.5141 37.57 43.5341 37.51C43.5441 37.45 43.5541 37.37 43.5541 37.26V34.97C43.5541 34.91 43.5441 34.85 43.5241 34.81C43.4941 34.77 43.4641 34.74 43.4441 34.7L43.6741 34.53C44.0341 34.58 44.3041 34.65 44.4841 34.75C44.6541 34.86 44.7441 34.93 44.7441 34.97V35.32C44.9541 35.21 45.1641 35.11 45.3641 35.03C45.5541 34.96 45.7441 34.9 45.9341 34.84C46.2341 34.77 46.5241 34.71 46.8141 34.65C47.0941 34.61 47.4041 34.58 47.7641 34.57C47.8741 34.57 47.9941 34.6 48.1241 34.64C48.2441 34.69 48.3541 34.74 48.4741 34.8C48.7141 34.93 48.8741 35.03 48.9541 35.11C49.0241 35.19 49.0641 35.24 49.0641 35.26C49.0641 35.32 49.0341 35.4 48.9941 35.5C48.9441 35.61 48.8941 35.71 48.8541 35.8C48.8541 35.82 48.8441 35.9 48.8441 36.05C48.8341 36.21 48.8241 36.39 48.8241 36.58C48.8041 36.78 48.7941 36.97 48.7941 37.14C48.7741 37.32 48.7641 37.44 48.7641 37.49C48.7441 37.61 48.7041 37.71 48.6341 37.79C48.5541 37.88 48.4441 37.92 48.2941 37.92H44.7441V38C44.6241 38.06 44.5141 38.1 44.3941 38.12C44.2641 38.15 44.1141 38.16 43.9541 38.16ZM49.4741 39.55C49.3841 39.55 49.2841 39.54 49.1641 39.54C49.0341 39.54 48.9041 39.54 48.7641 39.54H46.9541C46.9341 39.56 46.9241 39.59 46.9241 39.63C46.9141 39.65 46.9141 39.69 46.9141 39.73C46.9041 39.78 46.9041 39.83 46.9041 39.87C46.8941 39.93 46.8941 39.97 46.8941 40.01C46.8941 40.06 46.8941 40.09 46.8941 40.11C46.8941 40.14 46.8941 40.19 46.9041 40.27C46.9041 40.35 46.9041 40.44 46.9041 40.53C46.9041 40.63 46.9041 40.72 46.9141 40.8C46.9141 40.89 46.9141 40.95 46.9141 40.99C46.9141 41.1 46.8941 41.18 46.8541 41.24C46.8041 41.3 46.7141 41.37 46.5841 41.44C46.4841 41.5 46.3841 41.54 46.3041 41.56C46.2141 41.6 46.0941 41.63 45.9541 41.67C45.8541 41.7 45.7741 41.71 45.7341 41.71L45.6241 41.47L45.6941 41.31C45.7041 41.25 45.7141 41.19 45.7241 41.12C45.7241 41.06 45.7341 41.03 45.7341 41.01V39.54H43.8641C43.6641 39.54 43.4941 39.55 43.3641 39.56C43.2241 39.58 43.1141 39.59 43.0241 39.61C42.9241 39.64 42.8541 39.66 42.7941 39.68C42.7241 39.71 42.6641 39.73 42.6241 39.75C42.5841 39.77 42.5341 39.79 42.4741 39.81C42.4141 39.84 42.3541 39.85 42.3041 39.85C42.2641 39.85 42.2041 39.83 42.1041 39.79C42.0041 39.76 41.9041 39.69 41.8041 39.57C41.6841 39.45 41.5941 39.32 41.5341 39.19C41.4741 39.07 41.4241 38.96 41.3941 38.86L41.7241 38.72L41.8141 38.77C41.8941 38.82 41.9841 38.86 42.1041 38.9C42.2041 38.95 42.3141 38.98 42.4241 39C42.5241 39.02 42.6341 39.04 42.7641 39.04C42.8841 39.05 42.9741 39.05 43.0541 39.05L45.6141 39.04H48.4841C48.6541 39.04 48.8041 39.03 48.9241 39C49.0441 38.98 49.1441 38.94 49.2241 38.9C49.2941 38.87 49.3541 38.83 49.3941 38.78C49.4341 38.74 49.4541 38.69 49.4741 38.65L49.7441 38.56L49.9041 38.64C49.9441 38.67 50.0041 38.7 50.0641 38.74C50.1241 38.78 50.1841 38.83 50.2441 38.89C50.3341 38.99 50.4041 39.07 50.4441 39.15C50.4841 39.23 50.5041 39.29 50.5241 39.33C50.5441 39.39 50.5541 39.45 50.5541 39.49C50.5541 39.55 50.5241 39.59 50.4741 39.63C50.4141 39.67 50.3541 39.69 50.2741 39.67C50.1941 39.67 50.1241 39.66 50.0641 39.64C49.9441 39.62 49.8541 39.6 49.7741 39.58C49.6841 39.57 49.5841 39.56 49.4741 39.55ZM44.7441 37.45H47.2941C47.4341 37.45 47.5441 37.43 47.6041 37.38C47.6641 37.34 47.6941 37.26 47.6941 37.12V35.09C47.4941 35.09 47.2641 35.11 46.9941 35.14C46.7141 35.18 46.3941 35.26 46.0441 35.36C45.7941 35.44 45.5541 35.53 45.3241 35.63C45.0841 35.74 44.8941 35.84 44.7441 35.93V37.45ZM48.9641 42.46C49.0341 42.51 49.0941 42.59 49.1541 42.7C49.2041 42.82 49.2241 42.92 49.2141 43.01C49.2141 43.04 49.2041 43.08 49.2041 43.12C49.1841 43.17 49.1641 43.22 49.1341 43.26C49.0941 43.3 49.0341 43.33 48.9641 43.37C48.8841 43.4 48.7741 43.42 48.6341 43.42H44.0841C43.8441 43.42 43.6641 43.34 43.5341 43.18C43.3941 43.03 43.3341 42.83 43.3341 42.59V41.29C43.3341 41.22 43.3241 41.16 43.3141 41.12C43.2941 41.09 43.2641 41.06 43.2141 41.03C43.1741 41.02 43.1341 41.01 43.0841 41C43.0241 41 42.9941 40.96 42.9941 40.9C42.9741 40.82 43.0141 40.77 43.1041 40.73C43.1841 40.71 43.2741 40.69 43.3941 40.68C43.5041 40.68 43.6141 40.68 43.7341 40.68C43.8441 40.69 43.9241 40.7 43.9641 40.7C44.1041 40.72 44.2341 40.76 44.3541 40.84C44.4641 40.93 44.5241 41.04 44.5241 41.16V42.53C44.5241 42.67 44.5641 42.77 44.6641 42.83C44.7441 42.91 44.8641 42.94 45.0141 42.94H47.6641C47.8441 42.94 47.9741 42.94 48.0741 42.92C48.1541 42.91 48.2341 42.87 48.3141 42.79C48.3741 42.74 48.4141 42.69 48.4341 42.63C48.4341 42.58 48.4341 42.54 48.4241 42.5L48.5041 42.35C48.5741 42.35 48.6541 42.36 48.7341 42.36C48.8141 42.38 48.8841 42.41 48.9641 42.46Z" fill="#333333"/>
</g>
<rect x="38.5" y="30" width="15" height="18.5" stroke="#BD4B2C"/>
<defs>
<clipPath id="clip0_2031_34">
<rect x="19" y="5" width="16" height="19.5" fill="white"/>
</clipPath>
<clipPath id="clip1_2031_34">
<rect x="38" y="5" width="16" height="19.5" fill="white"/>
</clipPath>
<clipPath id="clip2_2031_34">
<rect x="38" y="29.5" width="16" height="19.5" fill="white"/>
</clipPath>
</defs>
</svg>
