<svg width="22" height="23" viewBox="0 0 22 23" fill="none" xmlns="http://www.w3.org/2000/svg">
<path d="M11 21.704C13.709 21.704 16.307 20.6278 18.2226 18.7123C20.1381 16.7967 21.2143 14.1987 21.2143 11.4897C21.2143 8.78068 20.1381 6.18264 18.2226 4.26709C16.307 2.35154 13.709 1.27539 11 1.27539C8.29099 1.27539 5.69295 2.35154 3.7774 4.26709C1.86185 6.18264 0.785706 8.78068 0.785706 11.4897C0.785706 14.1987 1.86185 16.7967 3.7774 18.7123C5.69295 20.6278 8.29099 21.704 11 21.704Z" stroke="black" stroke-linecap="round" stroke-linejoin="round"/>
<path d="M8.25 8.73976C8.24978 8.3328 8.33989 7.93086 8.51383 7.56293C8.68776 7.19501 8.94119 6.87028 9.25583 6.61216C9.57047 6.35405 9.93848 6.16898 10.3333 6.07032C10.7281 5.97166 11.1399 5.96186 11.539 6.04162C11.9379 6.1211 12.3143 6.288 12.641 6.53031C12.9678 6.77261 13.2367 7.08431 13.4286 7.44298C13.6205 7.80166 13.7305 8.1984 13.7508 8.60467C13.771 9.01094 13.701 9.41665 13.5457 9.79262C13.3374 10.2953 12.9846 10.7249 12.532 11.027C12.0794 11.3291 11.5473 11.4902 11.0031 11.4898V13.3236M11 16.9253C10.8958 16.9253 10.7959 16.8839 10.7222 16.8103C10.6485 16.7366 10.6071 16.6367 10.6071 16.5325C10.6071 16.4283 10.6485 16.3284 10.7222 16.2547C10.7959 16.181 10.8958 16.1396 11 16.1396C11.1042 16.1396 11.2041 16.181 11.2778 16.2547C11.3515 16.3284 11.3929 16.4283 11.3929 16.5325C11.3929 16.6367 11.3515 16.7366 11.2778 16.8103C11.2041 16.8839 11.1042 16.9253 11 16.9253Z" stroke="black" stroke-linecap="round" stroke-linejoin="round"/>
</svg>
