<svg width="54" height="54" viewBox="0 0 54 54" fill="none" xmlns="http://www.w3.org/2000/svg">
<rect x="0.5" y="5.5" width="15" height="18.5" stroke="#BD4B2C"/>
<path d="M4.65117 16.08C4.45784 16.08 4.28784 16.0633 4.14117 16.03C4.06784 16.01 4.00117 15.98 3.94117 15.94C3.88117 15.9 3.83451 15.8667 3.80117 15.84L3.83117 15.63C3.91117 15.65 3.99451 15.64 4.08117 15.6C4.16117 15.5467 4.20784 15.49 4.22117 15.43C4.24117 15.37 4.25117 15.2867 4.25117 15.18V11.35C4.25117 11.2833 4.23451 11.2333 4.20117 11.2C4.17451 11.1667 4.15451 11.1267 4.14117 11.08L4.37117 10.91C4.73117 10.95 4.99784 11.0233 5.17117 11.13C5.35117 11.2367 5.44117 11.31 5.44117 11.35V11.7C5.52117 11.64 5.60451 11.58 5.69117 11.52C5.76451 11.4667 5.84784 11.4133 5.94117 11.36C6.03451 11.3067 6.12784 11.2633 6.22117 11.23C6.34784 11.1833 6.46451 11.1433 6.57117 11.11C6.68451 11.07 6.79117 11.0367 6.89117 11.01C6.99117 10.99 7.09117 10.9733 7.19117 10.96C7.29784 10.9467 7.41451 10.94 7.54117 10.94C7.65451 10.94 7.77117 10.9667 7.89117 11.02C8.01784 11.0667 8.13451 11.1167 8.24117 11.17C8.48784 11.3033 8.64784 11.41 8.72117 11.49C8.80117 11.5633 8.84117 11.6133 8.84117 11.64C8.83451 11.6933 8.80784 11.7733 8.76117 11.88C8.72117 11.9867 8.68117 12.08 8.64117 12.16L8.63117 12.17V12.22C8.61784 12.76 8.60451 13.2433 8.59117 13.67C8.58451 13.8567 8.57784 14.04 8.57117 14.22C8.57117 14.4 8.56784 14.56 8.56117 14.7C8.55451 14.8467 8.54784 14.97 8.54117 15.07C8.54117 15.17 8.54117 15.2333 8.54117 15.26C8.53451 15.3133 8.52451 15.3667 8.51117 15.42C8.50451 15.4667 8.47451 15.5167 8.42117 15.57C8.36784 15.6233 8.31784 15.66 8.27117 15.68C8.22451 15.6933 8.15784 15.7 8.07117 15.7H5.44117V15.92C5.41451 15.9333 5.37784 15.9533 5.33117 15.98C5.29117 16 5.22784 16.02 5.14117 16.04C5.00784 16.0667 4.84451 16.08 4.65117 16.08ZM13.0512 14.08C13.0112 14.1133 12.9578 14.1233 12.8912 14.11C12.8312 14.09 12.7745 14.0733 12.7212 14.06C12.6678 14.0467 12.6078 14.04 12.5412 14.04C12.4812 14.04 12.4078 14.04 12.3212 14.04H11.1312V18.41C11.1312 18.6033 11.1078 18.74 11.0612 18.82C11.0145 18.9067 10.9278 18.98 10.8012 19.04C10.7078 19.08 10.5878 19.1 10.4412 19.1C10.3278 19.1 10.2278 19.09 10.1412 19.07C10.0612 19.0567 9.98451 19.0333 9.91117 19C9.83784 18.9667 9.76451 18.9167 9.69117 18.85C9.61784 18.79 9.56117 18.74 9.52117 18.7L9.62117 18.55C9.65451 18.5567 9.68784 18.5633 9.72117 18.57C9.76117 18.5767 9.79784 18.5733 9.83117 18.56C9.90451 18.5467 9.94784 18.5167 9.96117 18.47C9.98117 18.4167 9.99117 18.35 9.99117 18.27V10.03C9.99117 9.98333 9.97784 9.93667 9.95117 9.89C9.92451 9.83667 9.89451 9.79333 9.86117 9.76L10.0712 9.58C10.4312 9.62667 10.6978 9.69333 10.8712 9.78C11.0445 9.86 11.1312 9.92 11.1312 9.96V13.57L11.2612 13.56C11.4612 13.5467 11.6245 13.5267 11.7512 13.5C11.8778 13.4667 11.9778 13.43 12.0512 13.39C12.1178 13.3567 12.1645 13.32 12.1912 13.28C12.2245 13.2333 12.2478 13.1933 12.2612 13.16L12.5612 13.11C12.6278 13.1633 12.7178 13.2467 12.8312 13.36C12.9445 13.4733 13.0245 13.6167 13.0712 13.79C13.0845 13.8433 13.0912 13.9 13.0912 13.96C13.0978 14.0133 13.0845 14.0533 13.0512 14.08ZM5.44117 15.22H7.13117C7.27117 15.22 7.36117 15.2 7.40117 15.16C7.44784 15.1133 7.47117 15.0233 7.47117 14.89V11.45C7.31117 11.4233 7.15117 11.43 6.99117 11.47C6.83117 11.51 6.61451 11.5867 6.34117 11.7C6.19451 11.76 6.06451 11.8233 5.95117 11.89C5.84451 11.95 5.75451 12.0067 5.68117 12.06C5.59451 12.1267 5.51451 12.19 5.44117 12.25V15.22Z" fill="#333333"/>
<g clip-path="url(#clip0_2031_82)">
<path d="M30.4083 18.53C30.3883 18.69 30.3583 18.79 30.3183 18.87C30.2583 18.93 30.1783 18.99 30.0683 19.05C29.9683 19.09 29.8483 19.11 29.7083 19.11C29.5883 19.11 29.4983 19.1 29.4283 19.08C29.3483 19.05 29.2783 19.02 29.2083 19C29.1283 18.97 29.0483 18.93 28.9783 18.87C28.8983 18.8 28.8483 18.75 28.8183 18.7L28.9083 18.55C28.9883 18.57 29.0583 18.58 29.1183 18.57C29.1983 18.56 29.2483 18.53 29.2683 18.47C29.2783 18.42 29.2883 18.35 29.2883 18.27V9.98C29.2883 9.93 29.2683 9.88 29.2483 9.83C29.2183 9.79 29.1883 9.74 29.1583 9.7L29.3683 9.57C29.7283 9.62 29.9883 9.68 30.1583 9.76C30.3183 9.85 30.4083 9.92 30.4083 9.96V18.42V18.53ZM27.7683 12.13C27.6883 12.25 27.6183 12.38 27.5483 12.51C27.4683 12.65 27.3783 12.8 27.2883 12.94C27.1883 13.1 27.0683 13.25 26.9483 13.41C26.8083 13.58 26.6583 13.76 26.4883 13.94C26.5983 14.05 26.7183 14.16 26.8583 14.27C26.9783 14.39 27.0983 14.49 27.2183 14.58C27.3183 14.68 27.4183 14.75 27.4983 14.81C27.5783 14.88 27.6283 14.92 27.6483 14.92C27.6883 14.94 27.7283 14.93 27.7583 14.91C27.7783 14.9 27.7983 14.89 27.8283 14.87L28.1183 14.86C28.1483 14.9 28.1983 14.98 28.2583 15.1C28.3183 15.22 28.3583 15.32 28.3883 15.4C28.4183 15.51 28.4483 15.61 28.4783 15.71C28.4983 15.81 28.4983 15.95 28.4983 16.12C28.4983 16.22 28.4783 16.3 28.4483 16.35C28.4083 16.41 28.3583 16.44 28.3183 16.44C28.2783 16.44 28.2583 16.44 28.2483 16.42C28.2183 16.41 28.1883 16.39 28.1683 16.35C28.1283 16.32 28.0883 16.28 28.0483 16.23C28.0183 16.21 27.9883 16.17 27.9483 16.12C27.9083 16.08 27.8683 16.03 27.8283 15.98C27.7783 15.94 27.7383 15.89 27.6983 15.84C27.6583 15.8 27.6183 15.77 27.5983 15.73C27.5383 15.67 27.4483 15.59 27.3383 15.47C27.2183 15.36 27.0783 15.24 26.9383 15.1C26.7883 14.98 26.6383 14.85 26.4983 14.71C26.3383 14.58 26.2083 14.46 26.0883 14.35C25.4983 14.91 24.9783 15.34 24.5183 15.63C24.0583 15.93 23.6383 16.15 23.2583 16.28C23.1983 16.3 23.1383 16.32 23.0583 16.32C22.9783 16.33 22.8983 16.32 22.8283 16.3C22.7683 16.29 22.7183 16.26 22.6883 16.22C22.6483 16.19 22.6183 16.17 22.5883 16.15L22.7083 15.84C22.7783 15.88 22.8483 15.9 22.9183 15.9C22.9783 15.91 23.0483 15.89 23.1483 15.84C23.4883 15.68 23.8483 15.41 24.2483 15.02C24.6383 14.64 25.0183 14.21 25.3983 13.71C25.5983 13.44 25.7683 13.2 25.9083 12.99C26.0383 12.79 26.1483 12.6 26.2383 12.44C26.3183 12.29 26.3883 12.15 26.4483 12.03C26.4883 11.92 26.5283 11.82 26.5683 11.72H25.0983C24.8383 11.73 24.6483 11.75 24.5283 11.77C24.4083 11.81 24.3083 11.84 24.2283 11.87C24.1683 11.89 24.1283 11.91 24.0983 11.91C24.0583 11.93 24.0083 11.93 23.9583 11.93C23.9183 11.93 23.8583 11.91 23.7683 11.85C23.6683 11.81 23.5783 11.72 23.4983 11.59C23.4583 11.53 23.4083 11.45 23.3583 11.35C23.2983 11.25 23.2683 11.17 23.2583 11.11L23.5683 11.05H23.5883C23.6183 11.08 23.6983 11.11 23.8383 11.14C23.9983 11.2 24.1183 11.23 24.1983 11.23C24.2683 11.25 24.3083 11.25 24.3283 11.25L26.3783 11.24L26.3983 11.23C26.4683 11.21 26.5583 11.18 26.6583 11.14C26.7583 11.11 26.8583 11.08 26.9583 11.04C27.0583 11.02 27.1483 10.99 27.2383 10.97C27.3183 10.95 27.3783 10.94 27.4383 10.94C27.4583 10.94 27.5083 10.96 27.5683 10.99C27.6283 11.03 27.6883 11.08 27.7583 11.12C27.8183 11.18 27.8683 11.23 27.9283 11.29C27.9683 11.35 27.9983 11.4 27.9983 11.44C27.9983 11.52 27.9683 11.64 27.9183 11.78C27.8583 11.93 27.8083 12.05 27.7683 12.13Z" fill="#333333"/>
</g>
<rect x="19.5" y="5.5" width="15" height="18.5" stroke="#BD4B2C"/>
<g clip-path="url(#clip1_2031_82)">
<path d="M42.7486 14.72C42.5786 14.72 42.4286 14.71 42.2886 14.67C42.1386 14.64 42.0086 14.58 41.9086 14.48L41.9386 14.27C42.0086 14.29 42.0886 14.28 42.1786 14.23C42.2586 14.19 42.3086 14.13 42.3286 14.07C42.3386 14.01 42.3486 13.93 42.3486 13.82V10.91C42.3486 10.85 42.3286 10.8 42.3086 10.76C42.2786 10.73 42.2586 10.69 42.2386 10.65L42.4786 10.47C42.8386 10.52 43.0986 10.59 43.2786 10.69C43.4486 10.8 43.5386 10.87 43.5386 10.91V11.26C43.6186 11.2 43.7086 11.14 43.7986 11.08C43.8686 11.03 43.9486 10.98 44.0486 10.92C44.1386 10.88 44.2286 10.84 44.3286 10.8C44.5886 10.7 44.8286 10.63 45.0486 10.58C45.2586 10.54 45.4886 10.51 45.7486 10.51C45.8486 10.51 45.9686 10.54 46.0986 10.58C46.2186 10.64 46.3386 10.69 46.4486 10.74C46.6886 10.88 46.8486 10.98 46.9286 11.05C46.9986 11.13 47.0386 11.18 47.0386 11.2C47.0386 11.26 47.0186 11.34 46.9786 11.45C46.9286 11.57 46.8786 11.68 46.8286 11.78C46.8286 11.78 46.8286 11.83 46.8286 11.92C46.8186 12.02 46.8186 12.15 46.8186 12.29C46.8086 12.44 46.7986 12.6 46.7986 12.77C46.7886 12.95 46.7786 13.12 46.7786 13.27C46.7686 13.43 46.7586 13.57 46.7586 13.69C46.7486 13.81 46.7486 13.89 46.7486 13.92C46.7386 13.98 46.7286 14.03 46.7186 14.07C46.6986 14.12 46.6686 14.17 46.6186 14.23C46.5586 14.29 46.5186 14.32 46.4786 14.33C46.4286 14.35 46.3586 14.36 46.2786 14.36H43.5386V14.55C43.4486 14.62 43.3286 14.66 43.1786 14.68C43.0186 14.71 42.8786 14.72 42.7486 14.72ZM51.0486 13.15C50.9986 13.19 50.9486 13.19 50.8886 13.17C50.8286 13.16 50.7686 13.15 50.7186 13.13C50.6586 13.12 50.6086 13.11 50.5486 13.11C50.4786 13.11 50.3986 13.11 50.3186 13.11H49.1286V14.55C49.1286 14.77 49.0686 14.93 48.9586 15.05C48.8386 15.18 48.6686 15.24 48.4286 15.24C48.2486 15.24 48.0886 15.21 47.9386 15.14C47.7786 15.08 47.6386 14.98 47.5186 14.84L47.6086 14.69C47.7086 14.71 47.7986 14.7 47.8786 14.67C47.9486 14.65 47.9886 14.56 47.9886 14.41V10.06C47.9886 10.02 47.9686 9.97 47.9486 9.91C47.9186 9.87 47.8886 9.83 47.8586 9.79L48.0686 9.61C48.4186 9.66 48.6886 9.72 48.8686 9.8C49.0386 9.89 49.1286 9.95 49.1286 9.99V12.64L49.2486 12.63C49.4486 12.62 49.6086 12.59 49.7386 12.55C49.8586 12.51 49.9586 12.47 50.0386 12.41C50.0986 12.36 50.1486 12.31 50.1886 12.25C50.2086 12.21 50.2386 12.17 50.2586 12.13L50.5586 12.08C50.6186 12.14 50.6986 12.24 50.8186 12.38C50.9286 12.53 51.0086 12.69 51.0586 12.86C51.0686 12.92 51.0786 12.97 51.0886 13.02C51.0886 13.08 51.0786 13.13 51.0486 13.15ZM48.6786 15.56C48.7086 15.56 48.7586 15.58 48.8186 15.6C48.8786 15.64 48.9386 15.67 48.9986 15.71C49.0586 15.76 49.1086 15.81 49.1586 15.85C49.1986 15.9 49.2286 15.94 49.2286 15.97C49.2286 16.02 49.2186 16.07 49.2086 16.13C49.1886 16.19 49.1686 16.25 49.1486 16.31C49.1186 16.38 49.0886 16.44 49.0686 16.48C49.0386 16.54 49.0186 16.58 49.0086 16.6L48.9986 16.62L48.9886 18.64C48.9886 18.75 48.9686 18.81 48.9486 18.85C48.9386 18.85 48.9286 18.87 48.9186 18.89C48.8986 18.9 48.8786 18.91 48.8486 18.93C48.8086 18.94 48.7586 18.95 48.6986 18.97C48.6386 18.98 48.5586 18.99 48.4586 18.99C48.2586 18.99 48.0986 18.98 47.9686 18.97C47.8286 18.95 47.6886 18.91 47.5486 18.86C47.4486 18.82 47.3586 18.79 47.2986 18.76L47.3286 18.5C47.3486 18.51 47.3686 18.51 47.3886 18.51C47.3986 18.52 47.4186 18.52 47.4386 18.52H47.4986C47.6986 18.52 47.7986 18.42 47.7986 18.22V16.34H45.2386C44.9686 16.34 44.7686 16.37 44.6386 16.43C44.4986 16.49 44.3786 16.54 44.2886 16.57C44.2286 16.59 44.1886 16.61 44.1486 16.62C44.1086 16.64 44.0586 16.65 44.0086 16.63C43.9686 16.63 43.9086 16.59 43.8286 16.52C43.7386 16.46 43.6586 16.36 43.5786 16.24C43.5286 16.18 43.4886 16.1 43.4486 16.02C43.3986 15.95 43.3686 15.88 43.3586 15.8L43.6386 15.67L43.6486 15.68C43.6686 15.7 43.6886 15.71 43.7286 15.72C43.7586 15.74 43.7986 15.76 43.8586 15.77C43.9986 15.81 44.1086 15.84 44.1886 15.85C44.2586 15.87 44.3086 15.87 44.3486 15.87H47.7086C47.7786 15.85 47.8586 15.81 47.9586 15.77C48.0386 15.74 48.1286 15.71 48.2286 15.67C48.3086 15.65 48.3986 15.62 48.4786 15.59C48.5586 15.57 48.6186 15.56 48.6786 15.56ZM43.5386 13.88H45.3286C45.4686 13.88 45.5686 13.86 45.6086 13.81C45.6486 13.77 45.6686 13.69 45.6686 13.55V11.01C45.5086 10.99 45.3286 11 45.1486 11.04C44.9486 11.09 44.7186 11.17 44.4386 11.29C44.2886 11.36 44.1586 11.42 44.0586 11.48C43.9386 11.55 43.8486 11.61 43.7786 11.66C43.6886 11.73 43.6086 11.79 43.5386 11.85V13.88Z" fill="#333333"/>
</g>
<rect x="38.5" y="5.5" width="15" height="18.5" stroke="#BD4B2C"/>
<rect x="19.5" y="30" width="15" height="18.5" stroke="#BD4B2C"/>
<path d="M28.8543 40.02C28.9243 40 29.0043 39.96 29.1043 39.92C29.1843 39.89 29.2743 39.86 29.3743 39.82C29.4543 39.8 29.5443 39.77 29.6243 39.75C29.7043 39.73 29.7643 39.72 29.8143 39.72C29.8443 39.72 29.8943 39.74 29.9643 39.76C30.0243 39.8 30.0843 39.83 30.1443 39.87C30.2043 39.92 30.2543 39.97 30.3043 40.01C30.3443 40.06 30.3743 40.1 30.3743 40.13C30.3743 40.18 30.3643 40.23 30.3543 40.29C30.3343 40.36 30.3143 40.43 30.2943 40.49C30.2643 40.56 30.2343 40.62 30.2143 40.67C30.1843 40.73 30.1643 40.77 30.1543 40.79L30.0243 41.44H30.2243C30.3043 41.44 30.3643 41.47 30.4243 41.53C30.4643 41.59 30.4843 41.66 30.4843 41.74C30.4843 41.78 30.4743 41.81 30.4543 41.85C30.4243 41.9 30.3843 41.92 30.3343 41.92H26.0743V42.54C26.0743 42.56 26.0743 42.6 26.0943 42.66C26.0943 42.74 26.1243 42.8 26.1843 42.84C26.2443 42.9 26.3043 42.93 26.3643 42.93C26.4143 42.95 26.4743 42.95 26.5543 42.95H29.0943C29.2643 42.95 29.4043 42.94 29.5043 42.92C29.6043 42.91 29.6843 42.87 29.7643 42.8C29.7943 42.77 29.8143 42.74 29.8243 42.7C29.8243 42.68 29.8243 42.65 29.8243 42.61L29.8943 42.45H29.9343C29.9843 42.45 30.0443 42.46 30.1243 42.47C30.1943 42.49 30.2743 42.52 30.3643 42.56C30.4743 42.64 30.5543 42.74 30.6143 42.88C30.6543 43.02 30.6543 43.14 30.6143 43.23C30.5943 43.27 30.5643 43.3 30.5443 43.33C30.5043 43.35 30.4643 43.38 30.4243 43.4C30.3643 43.41 30.3043 43.42 30.2243 43.43C30.1443 43.43 30.0343 43.43 29.9143 43.43H25.3143C25.1743 43.43 25.0743 43.38 24.9943 43.3C24.9143 43.22 24.8743 43.13 24.8743 43.03V41.87C24.8743 41.79 24.8643 41.74 24.8543 41.7C24.8343 41.68 24.8043 41.66 24.7743 41.64C24.7543 41.63 24.7243 41.62 24.7043 41.62C24.6743 41.63 24.6443 41.63 24.6243 41.61C24.5843 41.6 24.5543 41.57 24.5443 41.51C24.5243 41.47 24.5343 41.42 24.5743 41.37C24.5843 41.36 24.6043 41.35 24.6343 41.33C24.6543 41.32 24.7243 41.31 24.8443 41.29C24.8843 41.28 24.9243 41.27 24.9643 41.27C25.0043 41.27 25.0443 41.27 25.0943 41.27C25.1943 41.27 25.3443 41.28 25.5443 41.3C25.7243 41.33 25.8743 41.36 25.9943 41.38C26.1143 41.42 26.1743 41.44 26.1743 41.44H28.9443V40.5H26.4643C26.1843 40.5 25.9843 40.52 25.8643 40.55C25.7343 40.59 25.6243 40.62 25.5443 40.65C25.4843 40.67 25.4443 40.69 25.4143 40.69C25.3743 40.71 25.3243 40.71 25.2743 40.71C25.2343 40.71 25.1743 40.69 25.0843 40.64C24.9843 40.6 24.9043 40.52 24.8243 40.4C24.7843 40.34 24.7343 40.25 24.6943 40.15C24.6443 40.05 24.6143 39.97 24.6043 39.9L24.8643 39.83L24.8743 39.84C24.8943 39.86 24.9243 39.87 24.9643 39.88C24.9843 39.9 25.0343 39.91 25.0943 39.93C25.2543 39.98 25.3743 40.01 25.4543 40.01C25.5243 40.03 25.5643 40.03 25.5843 40.03H28.8043L28.8543 40.02ZM27.7443 35.44C27.7443 35.65 27.6443 35.88 27.4443 36.13C27.2443 36.39 26.9643 36.68 26.6043 37.02C26.6843 37.1 26.7643 37.19 26.8543 37.27C26.9343 37.36 27.0043 37.44 27.0843 37.5C27.1443 37.58 27.2043 37.63 27.2643 37.67C27.3043 37.72 27.3343 37.75 27.3543 37.75C27.3943 37.77 27.4343 37.78 27.4743 37.76C27.5043 37.75 27.5343 37.74 27.5643 37.72L27.8443 37.74C27.8743 37.78 27.9143 37.86 27.9743 37.97C28.0143 38.09 28.0543 38.21 28.0743 38.32C28.0843 38.41 28.1043 38.5 28.1243 38.6C28.1343 38.7 28.1443 38.79 28.1443 38.87C28.1443 38.96 28.1243 39.03 28.1043 39.09C28.0643 39.16 28.0143 39.2 27.9543 39.21C27.8743 39.23 27.7943 39.2 27.7143 39.13C27.6143 39.07 27.5443 39.01 27.5043 38.95C27.4243 38.87 27.3243 38.76 27.2143 38.63C27.0943 38.51 26.9843 38.37 26.8643 38.23C26.7443 38.09 26.6243 37.95 26.5043 37.8C26.3743 37.66 26.2643 37.54 26.1643 37.42C25.8743 37.68 25.5843 37.91 25.2843 38.13C24.9843 38.35 24.6943 38.54 24.4243 38.7C24.1443 38.87 23.9043 39.01 23.6843 39.11C23.4643 39.22 23.2943 39.29 23.1743 39.31C23.1143 39.33 23.0543 39.34 22.9743 39.34C22.8943 39.36 22.8143 39.35 22.7443 39.33C22.6843 39.32 22.6343 39.3 22.6143 39.27C22.5743 39.25 22.5543 39.22 22.5443 39.18L22.6743 38.89C22.7243 38.91 22.7843 38.92 22.8443 38.91C22.8943 38.91 22.9643 38.9 23.0643 38.86C23.1443 38.83 23.2643 38.77 23.4243 38.67C23.5643 38.58 23.7343 38.46 23.9243 38.31C24.1043 38.17 24.2943 38 24.5043 37.8C24.7043 37.61 24.9043 37.39 25.1043 37.15C25.2643 36.97 25.3943 36.8 25.5143 36.66C25.6143 36.52 25.7143 36.4 25.7943 36.28C25.8743 36.18 25.9343 36.08 25.9943 35.99C26.0443 35.91 26.0943 35.82 26.1343 35.72H24.8443C24.5843 35.73 24.3943 35.75 24.2743 35.77C24.1543 35.81 24.0543 35.84 23.9743 35.87C23.9143 35.89 23.8743 35.91 23.8443 35.91C23.8043 35.93 23.7543 35.93 23.7043 35.93C23.6643 35.93 23.6043 35.91 23.5143 35.85C23.4143 35.81 23.3243 35.72 23.2443 35.59C23.2043 35.53 23.1543 35.45 23.1043 35.35C23.0443 35.25 23.0143 35.17 23.0043 35.11L23.3243 35.04C23.3443 35.06 23.3743 35.07 23.4343 35.09C23.4843 35.12 23.5443 35.14 23.6043 35.16C23.7043 35.2 23.8043 35.22 23.9043 35.23C23.9943 35.25 24.0643 35.25 24.1143 35.25L26.1243 35.24C26.2443 35.19 26.3743 35.14 26.5043 35.09C26.6043 35.06 26.7243 35.03 26.8543 34.99C26.9743 34.96 27.0843 34.94 27.1843 34.94C27.2143 34.94 27.2643 34.96 27.3343 34.99C27.3943 35.03 27.4543 35.08 27.5143 35.12C27.5743 35.18 27.6243 35.23 27.6743 35.29C27.7143 35.35 27.7443 35.4 27.7443 35.44ZM30.2643 38.79C30.2643 38.99 30.2343 39.12 30.1943 39.2C30.1443 39.29 30.0543 39.36 29.9243 39.42C29.8243 39.46 29.7043 39.48 29.5643 39.48C29.4443 39.48 29.3543 39.47 29.2743 39.45C29.1943 39.43 29.1143 39.41 29.0443 39.37C28.9643 39.34 28.8943 39.29 28.8243 39.23C28.7443 39.17 28.6843 39.12 28.6543 39.07L28.7443 38.92C28.7743 38.94 28.8143 38.95 28.8543 38.95C28.8843 38.96 28.9143 38.96 28.9543 38.94C29.0243 38.93 29.0743 38.9 29.0943 38.84C29.1143 38.8 29.1243 38.73 29.1243 38.64V34.51C29.1243 34.47 29.1043 34.42 29.0843 34.36C29.0543 34.32 29.0243 34.28 28.9943 34.24L29.2043 34.06C29.5543 34.11 29.8243 34.17 30.0043 34.25C30.1743 34.34 30.2643 34.4 30.2643 34.44V38.79Z" fill="#333333"/>
<g clip-path="url(#clip2_2031_82)">
<path d="M43.9541 38.16C43.7941 38.16 43.6441 38.15 43.4941 38.11C43.3341 38.09 43.2041 38.02 43.1041 37.92L43.1341 37.71C43.2141 37.73 43.2941 37.72 43.3841 37.68C43.4641 37.63 43.5141 37.57 43.5341 37.51C43.5441 37.45 43.5541 37.37 43.5541 37.26V34.97C43.5541 34.91 43.5441 34.85 43.5241 34.81C43.4941 34.77 43.4641 34.74 43.4441 34.7L43.6741 34.53C44.0341 34.58 44.3041 34.65 44.4841 34.75C44.6541 34.86 44.7441 34.93 44.7441 34.97V35.32C44.9541 35.21 45.1641 35.11 45.3641 35.03C45.5541 34.96 45.7441 34.9 45.9341 34.84C46.2341 34.77 46.5241 34.71 46.8141 34.65C47.0941 34.61 47.4041 34.58 47.7641 34.57C47.8741 34.57 47.9941 34.6 48.1241 34.64C48.2441 34.69 48.3541 34.74 48.4741 34.8C48.7141 34.93 48.8741 35.03 48.9541 35.11C49.0241 35.19 49.0641 35.24 49.0641 35.26C49.0641 35.32 49.0341 35.4 48.9941 35.5C48.9441 35.61 48.8941 35.71 48.8541 35.8C48.8541 35.82 48.8441 35.9 48.8441 36.05C48.8341 36.21 48.8241 36.39 48.8241 36.58C48.8041 36.78 48.7941 36.97 48.7941 37.14C48.7741 37.32 48.7641 37.44 48.7641 37.49C48.7441 37.61 48.7041 37.71 48.6341 37.79C48.5541 37.88 48.4441 37.92 48.2941 37.92H44.7441V38C44.6241 38.06 44.5141 38.1 44.3941 38.12C44.2641 38.15 44.1141 38.16 43.9541 38.16ZM49.4741 39.55C49.3841 39.55 49.2841 39.54 49.1641 39.54C49.0341 39.54 48.9041 39.54 48.7641 39.54H46.9541C46.9341 39.56 46.9241 39.59 46.9241 39.63C46.9141 39.65 46.9141 39.69 46.9141 39.73C46.9041 39.78 46.9041 39.83 46.9041 39.87C46.8941 39.93 46.8941 39.97 46.8941 40.01C46.8941 40.06 46.8941 40.09 46.8941 40.11C46.8941 40.14 46.8941 40.19 46.9041 40.27C46.9041 40.35 46.9041 40.44 46.9041 40.53C46.9041 40.63 46.9041 40.72 46.9141 40.8C46.9141 40.89 46.9141 40.95 46.9141 40.99C46.9141 41.1 46.8941 41.18 46.8541 41.24C46.8041 41.3 46.7141 41.37 46.5841 41.44C46.4841 41.5 46.3841 41.54 46.3041 41.56C46.2141 41.6 46.0941 41.63 45.9541 41.67C45.8541 41.7 45.7741 41.71 45.7341 41.71L45.6241 41.47L45.6941 41.31C45.7041 41.25 45.7141 41.19 45.7241 41.12C45.7241 41.06 45.7341 41.03 45.7341 41.01V39.54H43.8641C43.6641 39.54 43.4941 39.55 43.3641 39.56C43.2241 39.58 43.1141 39.59 43.0241 39.61C42.9241 39.64 42.8541 39.66 42.7941 39.68C42.7241 39.71 42.6641 39.73 42.6241 39.75C42.5841 39.77 42.5341 39.79 42.4741 39.81C42.4141 39.84 42.3541 39.85 42.3041 39.85C42.2641 39.85 42.2041 39.83 42.1041 39.79C42.0041 39.76 41.9041 39.69 41.8041 39.57C41.6841 39.45 41.5941 39.32 41.5341 39.19C41.4741 39.07 41.4241 38.96 41.3941 38.86L41.7241 38.72L41.8141 38.77C41.8941 38.82 41.9841 38.86 42.1041 38.9C42.2041 38.95 42.3141 38.98 42.4241 39C42.5241 39.02 42.6341 39.04 42.7641 39.04C42.8841 39.05 42.9741 39.05 43.0541 39.05L45.6141 39.04H48.4841C48.6541 39.04 48.8041 39.03 48.9241 39C49.0441 38.98 49.1441 38.94 49.2241 38.9C49.2941 38.87 49.3541 38.83 49.3941 38.78C49.4341 38.74 49.4541 38.69 49.4741 38.65L49.7441 38.56L49.9041 38.64C49.9441 38.67 50.0041 38.7 50.0641 38.74C50.1241 38.78 50.1841 38.83 50.2441 38.89C50.3341 38.99 50.4041 39.07 50.4441 39.15C50.4841 39.23 50.5041 39.29 50.5241 39.33C50.5441 39.39 50.5541 39.45 50.5541 39.49C50.5541 39.55 50.5241 39.59 50.4741 39.63C50.4141 39.67 50.3541 39.69 50.2741 39.67C50.1941 39.67 50.1241 39.66 50.0641 39.64C49.9441 39.62 49.8541 39.6 49.7741 39.58C49.6841 39.57 49.5841 39.56 49.4741 39.55ZM44.7441 37.45H47.2941C47.4341 37.45 47.5441 37.43 47.6041 37.38C47.6641 37.34 47.6941 37.26 47.6941 37.12V35.09C47.4941 35.09 47.2641 35.11 46.9941 35.14C46.7141 35.18 46.3941 35.26 46.0441 35.36C45.7941 35.44 45.5541 35.53 45.3241 35.63C45.0841 35.74 44.8941 35.84 44.7441 35.93V37.45ZM48.9641 42.46C49.0341 42.51 49.0941 42.59 49.1541 42.7C49.2041 42.82 49.2241 42.92 49.2141 43.01C49.2141 43.04 49.2041 43.08 49.2041 43.12C49.1841 43.17 49.1641 43.22 49.1341 43.26C49.0941 43.3 49.0341 43.33 48.9641 43.37C48.8841 43.4 48.7741 43.42 48.6341 43.42H44.0841C43.8441 43.42 43.6641 43.34 43.5341 43.18C43.3941 43.03 43.3341 42.83 43.3341 42.59V41.29C43.3341 41.22 43.3241 41.16 43.3141 41.12C43.2941 41.09 43.2641 41.06 43.2141 41.03C43.1741 41.02 43.1341 41.01 43.0841 41C43.0241 41 42.9941 40.96 42.9941 40.9C42.9741 40.82 43.0141 40.77 43.1041 40.73C43.1841 40.71 43.2741 40.69 43.3941 40.68C43.5041 40.68 43.6141 40.68 43.7341 40.68C43.8441 40.69 43.9241 40.7 43.9641 40.7C44.1041 40.72 44.2341 40.76 44.3541 40.84C44.4641 40.93 44.5241 41.04 44.5241 41.16V42.53C44.5241 42.67 44.5641 42.77 44.6641 42.83C44.7441 42.91 44.8641 42.94 45.0141 42.94H47.6641C47.8441 42.94 47.9741 42.94 48.0741 42.92C48.1541 42.91 48.2341 42.87 48.3141 42.79C48.3741 42.74 48.4141 42.69 48.4341 42.63C48.4341 42.58 48.4341 42.54 48.4241 42.5L48.5041 42.35C48.5741 42.35 48.6541 42.36 48.7341 42.36C48.8141 42.38 48.8841 42.41 48.9641 42.46Z" fill="#333333"/>
</g>
<rect x="38.5" y="30" width="15" height="18.5" stroke="#BD4B2C"/>
<defs>
<clipPath id="clip0_2031_82">
<rect x="19" y="5" width="16" height="19.5" fill="white"/>
</clipPath>
<clipPath id="clip1_2031_82">
<rect x="38" y="5" width="16" height="19.5" fill="white"/>
</clipPath>
<clipPath id="clip2_2031_82">
<rect x="38" y="29.5" width="16" height="19.5" fill="white"/>
</clipPath>
</defs>
</svg>
