<svg width="21" height="22" viewBox="0 0 21 22" fill="none" xmlns="http://www.w3.org/2000/svg">
<path d="M19.0575 5.55749C19.1734 5.43308 19.2365 5.26854 19.2335 5.09853C19.2305 4.92852 19.1617 4.7663 19.0414 4.64607C18.9212 4.52583 18.759 4.45696 18.589 4.45396C18.4189 4.45096 18.2544 4.51407 18.13 4.62999L11.5675 11.1925C11.503 11.2526 11.4513 11.325 11.4154 11.4055C11.3796 11.486 11.3603 11.5729 11.3587 11.661C11.3572 11.7491 11.3734 11.8367 11.4064 11.9184C11.4394 12.0001 11.4885 12.0743 11.5508 12.1366C11.6132 12.199 11.6874 12.2481 11.7691 12.2811C11.8508 12.3141 11.9383 12.3303 12.0265 12.3288C12.1146 12.3272 12.2015 12.3079 12.282 12.272C12.3625 12.2362 12.4349 12.1845 12.495 12.12L19.0575 5.55749ZM19.2036 6.64949C19.2345 6.79707 19.25 6.94932 19.25 7.10624V13.1437C19.25 13.4367 19.1923 13.7269 19.0802 13.9976C18.968 14.2683 18.8037 14.5143 18.5965 14.7215C18.3893 14.9287 18.1433 15.093 17.8726 15.2051C17.6019 15.3173 17.3118 15.375 17.0188 15.375H3.98125C3.68824 15.375 3.3981 15.3173 3.12739 15.2051C2.85668 15.093 2.61071 14.9287 2.40352 14.7215C2.19633 14.5143 2.03197 14.2683 1.91984 13.9976C1.80771 13.7269 1.75 13.4367 1.75 13.1437V7.10624C1.75 6.51447 1.98508 5.94695 2.40352 5.52851C2.82196 5.11007 3.38949 4.87499 3.98125 4.87499H16.6469L15.3344 6.18749H3.98125C3.47375 6.18749 3.0625 6.59874 3.0625 7.10624V13.1437C3.0625 13.6512 3.47375 14.0625 3.98125 14.0625H17.0188C17.5263 14.0625 17.9375 13.6512 17.9375 13.1437V7.91561L19.2036 6.64949ZM3.9375 8.59374C3.9375 8.41969 4.00664 8.25277 4.12971 8.1297C4.25278 8.00663 4.4197 7.93749 4.59375 7.93749H6.34375C6.5178 7.93749 6.68472 8.00663 6.80779 8.1297C6.93086 8.25277 7 8.41969 7 8.59374C7 8.76779 6.93086 8.93471 6.80779 9.05778C6.68472 9.18085 6.5178 9.24999 6.34375 9.24999H4.59375C4.4197 9.24999 4.25278 9.18085 4.12971 9.05778C4.00664 8.93471 3.9375 8.76779 3.9375 8.59374ZM3.9375 11.6562C3.9375 11.4822 4.00664 11.3153 4.12971 11.1922C4.25278 11.0691 4.4197 11 4.59375 11H8.96875C9.1428 11 9.30972 11.0691 9.43279 11.1922C9.55586 11.3153 9.625 11.4822 9.625 11.6562C9.625 11.8303 9.55586 11.9972 9.43279 12.1203C9.30972 12.2433 9.1428 12.3125 8.96875 12.3125H4.59375C4.4197 12.3125 4.25278 12.2433 4.12971 12.1203C4.00664 11.9972 3.9375 11.8303 3.9375 11.6562Z" fill="#333333" fill-opacity="0.8"/>
</svg>
