<svg width="29" height="29" viewBox="0 0 29 29" fill="none" xmlns="http://www.w3.org/2000/svg">
<rect x="1" y="1" width="27" height="27" rx="13.5" fill="#323E36" fill-opacity="0.5"/>
<rect x="1" y="1" width="27" height="27" rx="13.5" stroke="#FAFAFA" stroke-width="2"/>
<path fill-rule="evenodd" clip-rule="evenodd" d="M12.6483 22H16.3517C18.9525 22 20.2533 22 21.1875 21.3875C21.5907 21.1235 21.9378 20.7825 22.2092 20.3842C22.8333 19.4675 22.8333 18.19 22.8333 15.6367C22.8333 13.0834 22.8333 11.8059 22.2092 10.8892C21.9378 10.4909 21.5907 10.1499 21.1875 9.88587C20.5875 9.49171 19.8358 9.35087 18.685 9.30087C18.1358 9.30087 17.6633 8.89254 17.5558 8.36337C17.4737 7.97576 17.2602 7.6284 16.9515 7.38C16.6428 7.13159 16.2579 6.99738 15.8617 7.00004H13.1383C12.315 7.00004 11.6058 7.57087 11.4442 8.36337C11.3367 8.89254 10.8642 9.30087 10.315 9.30087C9.16499 9.35087 8.41332 9.49254 7.81249 9.88587C7.4096 10.15 7.06272 10.4909 6.79166 10.8892C6.16666 11.8059 6.16666 13.0825 6.16666 15.6367C6.16666 18.1909 6.16666 19.4667 6.79082 20.3842C7.06082 20.7809 7.40749 21.1217 7.81249 21.3875C8.74666 22 10.0475 22 12.6483 22ZM14.5 12.2275C12.5825 12.2275 11.0275 13.7534 11.0275 15.6359C11.0275 17.5184 12.5833 19.0467 14.5 19.0467C16.4167 19.0467 17.9725 17.52 17.9725 15.6375C17.9725 13.755 16.4167 12.2275 14.5 12.2275ZM14.5 13.5909C13.35 13.5909 12.4167 14.5067 12.4167 15.6367C12.4167 16.7659 13.35 17.6817 14.5 17.6817C15.65 17.6817 16.5833 16.7659 16.5833 15.6367C16.5833 14.5075 15.65 13.5909 14.5 13.5909ZM18.435 12.9092C18.435 12.5325 18.7458 12.2275 19.13 12.2275H20.055C20.4383 12.2275 20.75 12.5325 20.75 12.9092C20.7482 13.0916 20.6741 13.2659 20.544 13.3937C20.4138 13.5215 20.2382 13.5924 20.0558 13.5909H19.13C19.0396 13.5918 18.9499 13.5748 18.8661 13.541C18.7822 13.5073 18.7058 13.4573 18.6413 13.394C18.5768 13.3307 18.5253 13.2553 18.4899 13.1721C18.4545 13.0889 18.4359 12.9996 18.435 12.9092Z" fill="#FAFAFA"/>
</svg>
