<svg width="25" height="26" viewBox="0 0 25 26" fill="none" xmlns="http://www.w3.org/2000/svg">
<path d="M10.6055 3.48914C4.2895 3.48914 0.5 8.55564 0.5 11.0891C0.5 13.6226 1.763 15.5226 4.2895 15.5226C6.816 15.5226 8.0795 16.1556 8.0795 18.0556C8.0795 20.5886 9.974 22.4886 12.5005 22.4886C20.7115 22.4886 24.5005 18.0556 24.5005 13.6226C24.5 6.02264 18.183 3.48914 10.6055 3.48914ZM9.0265 6.02264C9.23416 6.02277 9.43975 6.06383 9.63153 6.14348C9.8233 6.22313 9.99749 6.3398 10.1441 6.48682C10.2908 6.63384 10.407 6.80833 10.4862 7.00031C10.5654 7.19228 10.6059 7.39798 10.6055 7.60564C10.6055 8.48064 9.8985 9.18914 9.0265 9.18914C8.1545 9.18914 7.4475 8.48014 7.4475 7.60564C7.44711 7.39798 7.48765 7.19228 7.56681 7.00031C7.64598 6.80833 7.76221 6.63384 7.90886 6.48682C8.05551 6.3398 8.2297 6.22313 8.42147 6.14348C8.61325 6.06383 8.81884 6.02277 9.0265 6.02264ZM14.0785 6.02264C14.2862 6.02277 14.4918 6.06383 14.6835 6.14348C14.8753 6.22313 15.0495 6.3398 15.1961 6.48682C15.3428 6.63384 15.459 6.80833 15.5382 7.00031C15.6174 7.19228 15.6579 7.39798 15.6575 7.60564C15.658 7.81333 15.6175 8.01909 15.5383 8.21112C15.4592 8.40315 15.343 8.5777 15.1963 8.72477C15.0497 8.87185 14.8755 8.98856 14.6836 9.06824C14.4918 9.14792 14.2862 9.189 14.0785 9.18914C13.8708 9.18894 13.6653 9.14781 13.4735 9.0681C13.2818 8.98839 13.1076 8.87167 12.961 8.7246C12.8144 8.57753 12.6982 8.403 12.6191 8.211C12.54 8.019 12.4995 7.81329 12.5 7.60564C12.4996 7.39802 12.5401 7.19236 12.6193 7.00042C12.6984 6.80848 12.8146 6.63401 12.9612 6.487C13.1078 6.33998 13.2819 6.2233 13.4736 6.14362C13.6653 6.06395 13.8709 6.02283 14.0785 6.02264ZM19.1315 8.55564C19.3392 8.5557 19.5449 8.59673 19.7368 8.67638C19.9287 8.75603 20.1029 8.87274 20.2496 9.01982C20.3964 9.1669 20.5126 9.34147 20.5918 9.53354C20.6709 9.7256 20.7115 9.93139 20.711 10.1391C20.7114 10.3468 20.6708 10.5526 20.5916 10.7446C20.5124 10.9366 20.3962 11.1111 20.2495 11.2581C20.1028 11.4052 19.9285 11.5218 19.7367 11.6014C19.5448 11.6811 19.3392 11.7221 19.1315 11.7221C18.9239 11.7219 18.7183 11.6808 18.5266 11.6011C18.3349 11.5215 18.1608 11.4048 18.0142 11.2578C17.8676 11.1108 17.7514 10.9363 17.6723 10.7444C17.5931 10.5524 17.5526 10.3468 17.553 10.1391C17.5525 9.93148 17.593 9.72577 17.6721 9.53377C17.7512 9.34177 17.8674 9.16724 18.014 9.02017C18.1606 8.87311 18.3348 8.75638 18.5265 8.67667C18.7183 8.59696 18.9238 8.55583 19.1315 8.55564ZM4.6055 9.82264C4.81307 9.82283 5.01857 9.86393 5.21026 9.94358C5.40194 10.0232 5.57605 10.1399 5.72264 10.2868C5.86923 10.4338 5.98543 10.6082 6.06459 10.8001C6.14375 10.992 6.18433 11.1976 6.184 11.4051C6.184 12.2801 5.477 12.9886 4.6055 12.9886C3.734 12.9886 3.0265 12.2796 3.0265 11.4051C3.02617 11.1975 3.06676 10.9919 3.14596 10.8C3.22515 10.608 3.34139 10.4336 3.48803 10.2866C3.63468 10.1397 3.80885 10.023 4.00059 9.94343C4.19233 9.86381 4.39789 9.82277 4.6055 9.82264ZM12.5 16.1556C13.5465 16.1556 14.3945 17.0056 14.3945 18.0561C14.3945 19.1051 13.5465 19.9556 12.5 19.9556C11.4535 19.9556 10.6055 19.1051 10.6055 18.0561C10.605 17.8069 10.6537 17.5601 10.7487 17.3297C10.8436 17.0993 10.9831 16.8899 11.159 16.7134C11.3349 16.5369 11.5439 16.3968 11.774 16.3011C12.0041 16.2054 12.2508 16.156 12.5 16.1556Z" fill="black"/>
</svg>
