<svg width="14" height="16" viewBox="0 0 14 16" fill="none" xmlns="http://www.w3.org/2000/svg">
<g opacity="0.8">
<path d="M7.00002 7.05176C6.38118 7.05176 5.78769 6.80483 5.3501 6.36529C4.91252 5.92575 4.66669 5.32961 4.66669 4.70801C4.66669 4.08641 4.91252 3.49026 5.3501 3.05073C5.78769 2.61119 6.38118 2.36426 7.00002 2.36426C7.61886 2.36426 8.21235 2.61119 8.64994 3.05073C9.08752 3.49026 9.33335 4.08641 9.33335 4.70801C9.33335 5.32961 9.08752 5.92575 8.64994 6.36529C8.21235 6.80483 7.61886 7.05176 7.00002 7.05176ZM7.00002 3.30176C6.22535 3.30176 5.60002 3.92988 5.60002 4.70801C5.60002 5.48613 6.22535 6.11426 7.00002 6.11426C7.77469 6.11426 8.40002 5.48613 8.40002 4.70801C8.40002 3.92988 7.77469 3.30176 7.00002 3.30176Z" fill="#333333"/>
<path d="M12.6 10.8018C12.3387 10.8018 12.1333 10.5955 12.1333 10.333C12.1333 10.0705 12.3387 9.86426 12.6 9.86426C12.8613 9.86426 13.0667 9.65801 13.0667 9.39551C13.0667 8.77391 12.8208 8.17776 12.3832 7.73823C11.9457 7.29869 11.3522 7.05176 10.7333 7.05176H9.8C9.53867 7.05176 9.33333 6.84551 9.33333 6.58301C9.33333 6.32051 9.53867 6.11426 9.8 6.11426C10.5747 6.11426 11.2 5.48613 11.2 4.70801C11.2 3.92988 10.5747 3.30176 9.8 3.30176C9.53867 3.30176 9.33333 3.09551 9.33333 2.83301C9.33333 2.57051 9.53867 2.36426 9.8 2.36426C10.4188 2.36426 11.0123 2.61119 11.4499 3.05073C11.8875 3.49026 12.1333 4.08641 12.1333 4.70801C12.1333 5.28926 11.928 5.81426 11.5733 6.22676C12.964 6.60176 14 7.87676 14 9.39551C14 10.1736 13.3747 10.8018 12.6 10.8018ZM1.4 10.8018C0.625333 10.8018 0 10.1736 0 9.39551C0 7.87676 1.02667 6.60176 2.42667 6.22676C2.08133 5.81426 1.86667 5.28926 1.86667 4.70801C1.86667 4.08641 2.1125 3.49026 2.55008 3.05073C2.98767 2.61119 3.58116 2.36426 4.2 2.36426C4.46133 2.36426 4.66667 2.57051 4.66667 2.83301C4.66667 3.09551 4.46133 3.30176 4.2 3.30176C3.42533 3.30176 2.8 3.92988 2.8 4.70801C2.8 5.48613 3.42533 6.11426 4.2 6.11426C4.46133 6.11426 4.66667 6.32051 4.66667 6.58301C4.66667 6.84551 4.46133 7.05176 4.2 7.05176H3.26667C2.64783 7.05176 2.05434 7.29869 1.61675 7.73823C1.17917 8.17776 0.933333 8.77391 0.933333 9.39551C0.933333 9.65801 1.13867 9.86426 1.4 9.86426C1.66133 9.86426 1.86667 10.0705 1.86667 10.333C1.86667 10.5955 1.66133 10.8018 1.4 10.8018ZM9.8 13.6143H4.2C3.42533 13.6143 2.8 12.9861 2.8 12.208V11.2705C2.8 9.46113 4.26533 7.98926 6.06667 7.98926H7.93333C9.73467 7.98926 11.2 9.46113 11.2 11.2705V12.208C11.2 12.9861 10.5747 13.6143 9.8 13.6143ZM6.06667 8.92676C5.44783 8.92676 4.85434 9.17369 4.41675 9.61323C3.97917 10.0528 3.73333 10.6489 3.73333 11.2705V12.208C3.73333 12.4705 3.93867 12.6768 4.2 12.6768H9.8C10.0613 12.6768 10.2667 12.4705 10.2667 12.208V11.2705C10.2667 10.6489 10.0208 10.0528 9.58325 9.61323C9.14566 9.17369 8.55217 8.92676 7.93333 8.92676H6.06667Z" fill="#333333"/>
</g>
</svg>
